<svg width="70" height="93" viewBox="0 0 70 93" fill="none" xmlns="http://www.w3.org/2000/svg">
<mask id="path-1-outside-1_1_5" maskUnits="userSpaceOnUse" x="0" y="0" width="70" height="93" fill="black">
<rect fill="white" width="70" height="93"/>
<path d="M1.3125 44.75V43.9375L1.25 7.875C1.25 6.16667 1.85417 4.70833 3.0625 3.5C4.27083 2.29167 5.70833 1.66667 7.375 1.625L23.8125 1.3125C24.7292 1.27083 25.625 1.25 26.5 1.25C27.375 1.25 28.2292 1.25 29.0625 1.25C33.6458 1.25 38.1042 1.75 42.4375 2.75C46.7708 3.75 50.6458 5.29167 54.0625 7.375C57.5208 9.45833 60.25 12.1667 62.25 15.5C64.2917 18.7917 65.3125 22.75 65.3125 27.375C65.3125 33.375 63.25 38.5417 59.125 42.875C62.0417 45 64.4167 47.8125 66.25 51.3125C68.0833 54.7708 69 58.7917 69 63.375C69 69.2917 67.7292 74.2917 65.1875 78.375C62.6458 82.4167 59.1458 85.5 54.6875 87.625C50.2292 89.75 45.1042 90.875 39.3125 91L7.75 91.0625H7.625C5.91667 91.0625 4.4375 90.4583 3.1875 89.25C1.97917 88 1.375 86.5208 1.375 84.8125L1.3125 44.75ZM52.8125 27.75C52.8125 23.9583 51.5208 21.0625 48.9375 19.0625C46.3958 17.0208 43.1875 15.625 39.3125 14.875C35.4792 14.125 31.6042 13.75 27.6875 13.75C27.1042 13.75 26.5 13.7708 25.875 13.8125C25.25 13.8125 24.6458 13.8125 24.0625 13.8125L13.75 14L13.8125 38.0625L37.875 37.6875C40.4167 37.6458 42.8125 37.3542 45.0625 36.8125C47.3542 36.2292 49.2083 35.2292 50.625 33.8125C52.0833 32.3542 52.8125 30.3333 52.8125 27.75ZM39.0625 78.5C44.6458 78.4167 48.9375 77.2292 51.9375 74.9375C54.9792 72.6042 56.5 68.6458 56.5 63.0625C56.5 58.1042 54.8542 54.7292 51.5625 52.9375C48.2708 51.1042 44.0625 50.1875 38.9375 50.1875H38.125L13.8125 50.5625L13.875 78.4375L39.0625 78.5Z"/>
</mask>
<path d="M1.3125 44.75V43.9375L1.25 7.875C1.25 6.16667 1.85417 4.70833 3.0625 3.5C4.27083 2.29167 5.70833 1.66667 7.375 1.625L23.8125 1.3125C24.7292 1.27083 25.625 1.25 26.5 1.25C27.375 1.25 28.2292 1.25 29.0625 1.25C33.6458 1.25 38.1042 1.75 42.4375 2.75C46.7708 3.75 50.6458 5.29167 54.0625 7.375C57.5208 9.45833 60.25 12.1667 62.25 15.5C64.2917 18.7917 65.3125 22.75 65.3125 27.375C65.3125 33.375 63.25 38.5417 59.125 42.875C62.0417 45 64.4167 47.8125 66.25 51.3125C68.0833 54.7708 69 58.7917 69 63.375C69 69.2917 67.7292 74.2917 65.1875 78.375C62.6458 82.4167 59.1458 85.5 54.6875 87.625C50.2292 89.75 45.1042 90.875 39.3125 91L7.75 91.0625H7.625C5.91667 91.0625 4.4375 90.4583 3.1875 89.25C1.97917 88 1.375 86.5208 1.375 84.8125L1.3125 44.75ZM52.8125 27.75C52.8125 23.9583 51.5208 21.0625 48.9375 19.0625C46.3958 17.0208 43.1875 15.625 39.3125 14.875C35.4792 14.125 31.6042 13.75 27.6875 13.75C27.1042 13.75 26.5 13.7708 25.875 13.8125C25.25 13.8125 24.6458 13.8125 24.0625 13.8125L13.75 14L13.8125 38.0625L37.875 37.6875C40.4167 37.6458 42.8125 37.3542 45.0625 36.8125C47.3542 36.2292 49.2083 35.2292 50.625 33.8125C52.0833 32.3542 52.8125 30.3333 52.8125 27.75ZM39.0625 78.5C44.6458 78.4167 48.9375 77.2292 51.9375 74.9375C54.9792 72.6042 56.5 68.6458 56.5 63.0625C56.5 58.1042 54.8542 54.7292 51.5625 52.9375C48.2708 51.1042 44.0625 50.1875 38.9375 50.1875H38.125L13.8125 50.5625L13.875 78.4375L39.0625 78.5Z" fill="white"/>
<path d="M1.3125 44.75L0.312499 44.75L0.312501 44.7516L1.3125 44.75ZM1.3125 43.9375L2.3125 43.9375L2.3125 43.9358L1.3125 43.9375ZM1.25 7.875L0.249998 7.875L0.250002 7.87673L1.25 7.875ZM3.0625 3.5L2.35539 2.79289L3.0625 3.5ZM7.375 1.625L7.35599 0.625163L7.35001 0.625312L7.375 1.625ZM23.8125 1.3125L23.8315 2.31232L23.8447 2.31207L23.8579 2.31147L23.8125 1.3125ZM54.0625 7.375L53.5419 8.22881L53.5465 8.23158L54.0625 7.375ZM62.25 15.5L61.3925 16.0145L61.3963 16.0208L61.4002 16.0271L62.25 15.5ZM59.125 42.875L58.4007 42.1855L57.6143 43.0116L58.5361 43.6832L59.125 42.875ZM66.25 51.3125L65.3642 51.7765L65.3665 51.7809L66.25 51.3125ZM65.1875 78.375L66.034 78.9074L66.0365 78.9034L65.1875 78.375ZM39.3125 91L39.3145 92L39.3243 92L39.3341 91.9998L39.3125 91ZM7.75 91.0625L7.75 92.0625L7.75198 92.0625L7.75 91.0625ZM3.1875 89.25L2.46851 89.945L2.48029 89.9572L2.49248 89.969L3.1875 89.25ZM1.375 84.8125L2.375 84.8125L2.375 84.8109L1.375 84.8125ZM48.9375 19.0625L48.3112 19.8421L48.3182 19.8477L48.3253 19.8532L48.9375 19.0625ZM39.3125 14.875L39.1205 15.8564L39.1225 15.8568L39.3125 14.875ZM25.875 13.8125V14.8125H25.9083L25.9415 14.8103L25.875 13.8125ZM24.0625 13.8125V12.8125H24.0534L24.0443 12.8127L24.0625 13.8125ZM13.75 14L13.7318 13.0002L12.7474 13.0181L12.75 14.0026L13.75 14ZM13.8125 38.0625L12.8125 38.0651L12.8151 39.0782L13.8281 39.0624L13.8125 38.0625ZM37.875 37.6875L37.8906 38.6874L37.8914 38.6874L37.875 37.6875ZM45.0625 36.8125L45.2966 37.7848L45.3092 37.7816L45.0625 36.8125ZM39.0625 78.5L39.06 79.5L39.0687 79.5L39.0774 79.4999L39.0625 78.5ZM51.9375 74.9375L52.5445 75.7322L52.5462 75.7309L51.9375 74.9375ZM51.5625 52.9375L51.0759 53.8112L51.0844 53.8158L51.5625 52.9375ZM38.125 50.1875V49.1875H38.1173L38.1096 49.1876L38.125 50.1875ZM13.8125 50.5625L13.7971 49.5626L12.8103 49.5778L12.8125 50.5647L13.8125 50.5625ZM13.875 78.4375L12.875 78.4397L12.8772 79.435L13.8725 79.4375L13.875 78.4375ZM1.3125 44.75H2.3125V43.9375H1.3125H0.3125V44.75H1.3125ZM1.3125 43.9375L2.3125 43.9358L2.25 7.87327L1.25 7.875L0.250002 7.87673L0.312502 43.9392L1.3125 43.9375ZM1.25 7.875H2.25C2.25 6.43197 2.74875 5.22797 3.76961 4.20711L3.0625 3.5L2.35539 2.79289C0.959586 4.1887 0.25 5.90136 0.25 7.875H1.25ZM3.0625 3.5L3.76961 4.20711C4.80156 3.17516 5.99685 2.65977 7.39999 2.62469L7.375 1.625L7.35001 0.625312C5.41982 0.673567 3.74011 1.40818 2.35539 2.79289L3.0625 3.5ZM7.375 1.625L7.39401 2.62482L23.8315 2.31232L23.8125 1.3125L23.7935 0.312681L7.35599 0.625181L7.375 1.625ZM23.8125 1.3125L23.8579 2.31147C24.7602 2.27046 25.6409 2.25 26.5 2.25V1.25V0.25C25.6091 0.25 24.6982 0.27121 23.7671 0.313531L23.8125 1.3125ZM26.5 1.25V2.25C26.5017 2.25 26.5034 2.25 26.5051 2.25C26.5068 2.25 26.5085 2.25 26.5103 2.25C26.512 2.25 26.5137 2.25 26.5154 2.25C26.5171 2.25 26.5188 2.25 26.5205 2.25C26.5222 2.25 26.5239 2.25 26.5256 2.25C26.5273 2.25 26.529 2.25 26.5308 2.25C26.5325 2.25 26.5342 2.25 26.5359 2.25C26.5376 2.25 26.5393 2.25 26.541 2.25C26.5427 2.25 26.5444 2.25 26.5461 2.25C26.5478 2.25 26.5495 2.25 26.5512 2.25C26.553 2.25 26.5547 2.25 26.5564 2.25C26.5581 2.25 26.5598 2.25 26.5615 2.25C26.5632 2.25 26.5649 2.25 26.5666 2.25C26.5683 2.25 26.57 2.25 26.5717 2.25C26.5734 2.25 26.5751 2.25 26.5769 2.25C26.5786 2.25 26.5803 2.25 26.582 2.25C26.5837 2.25 26.5854 2.25 26.5871 2.25C26.5888 2.25 26.5905 2.25 26.5922 2.25C26.5939 2.25 26.5956 2.25 26.5973 2.25C26.599 2.25 26.6007 2.25 26.6024 2.25C26.6041 2.25 26.6059 2.25 26.6076 2.25C26.6093 2.25 26.611 2.25 26.6127 2.25C26.6144 2.25 26.6161 2.25 26.6178 2.25C26.6195 2.25 26.6212 2.25 26.6229 2.25C26.6246 2.25 26.6263 2.25 26.628 2.25C26.6297 2.25 26.6314 2.25 26.6331 2.25C26.6348 2.25 26.6365 2.25 26.6383 2.25C26.64 2.25 26.6417 2.25 26.6434 2.25C26.6451 2.25 26.6468 2.25 26.6485 2.25C26.6502 2.25 26.6519 2.25 26.6536 2.25C26.6553 2.25 26.657 2.25 26.6587 2.25C26.6604 2.25 26.6621 2.25 26.6638 2.25C26.6655 2.25 26.6672 2.25 26.6689 2.25C26.6706 2.25 26.6723 2.25 26.674 2.25C26.6757 2.25 26.6774 2.25 26.6792 2.25C26.6809 2.25 26.6826 2.25 26.6843 2.25C26.686 2.25 26.6877 2.25 26.6894 2.25C26.6911 2.25 26.6928 2.25 26.6945 2.25C26.6962 2.25 26.6979 2.25 26.6996 2.25C26.7013 2.25 26.703 2.25 26.7047 2.25C26.7064 2.25 26.7081 2.25 26.7098 2.25C26.7115 2.25 26.7132 2.25 26.7149 2.25C26.7166 2.25 26.7183 2.25 26.72 2.25C26.7217 2.25 26.7234 2.25 26.7251 2.25C26.7268 2.25 26.7285 2.25 26.7302 2.25C26.7319 2.25 26.7336 2.25 26.7353 2.25C26.737 2.25 26.7387 2.25 26.7404 2.25C26.7421 2.25 26.7438 2.25 26.7455 2.25C26.7472 2.25 26.7489 2.25 26.7506 2.25C26.7523 2.25 26.7541 2.25 26.7558 2.25C26.7575 2.25 26.7592 2.25 26.7609 2.25C26.7626 2.25 26.7643 2.25 26.766 2.25C26.7677 2.25 26.7694 2.25 26.7711 2.25C26.7728 2.25 26.7745 2.25 26.7762 2.25C26.7779 2.25 26.7796 2.25 26.7813 2.25C26.783 2.25 26.7847 2.25 26.7864 2.25C26.7881 2.25 26.7898 2.25 26.7915 2.25C26.7932 2.25 26.7949 2.25 26.7966 2.25C26.7983 2.25 26.8 2.25 26.8017 2.25C26.8034 2.25 26.8051 2.25 26.8068 2.25C26.8085 2.25 26.8102 2.25 26.8119 2.25C26.8136 2.25 26.8153 2.25 26.817 2.25C26.8187 2.25 26.8204 2.25 26.8221 2.25C26.8238 2.25 26.8254 2.25 26.8271 2.25C26.8288 2.25 26.8305 2.25 26.8322 2.25C26.8339 2.25 26.8356 2.25 26.8373 2.25C26.839 2.25 26.8407 2.25 26.8424 2.25C26.8441 2.25 26.8458 2.25 26.8475 2.25C26.8492 2.25 26.8509 2.25 26.8526 2.25C26.8543 2.25 26.856 2.25 26.8577 2.25C26.8594 2.25 26.8611 2.25 26.8628 2.25C26.8645 2.25 26.8662 2.25 26.8679 2.25C26.8696 2.25 26.8713 2.25 26.873 2.25C26.8747 2.25 26.8764 2.25 26.8781 2.25C26.8798 2.25 26.8815 2.25 26.8832 2.25C26.8849 2.25 26.8866 2.25 26.8883 2.25C26.89 2.25 26.8917 2.25 26.8934 2.25C26.8951 2.25 26.8968 2.25 26.8985 2.25C26.9001 2.25 26.9018 2.25 26.9035 2.25C26.9052 2.25 26.9069 2.25 26.9086 2.25C26.9103 2.25 26.912 2.25 26.9137 2.25C26.9154 2.25 26.9171 2.25 26.9188 2.25C26.9205 2.25 26.9222 2.25 26.9239 2.25C26.9256 2.25 26.9273 2.25 26.929 2.25C26.9307 2.25 26.9324 2.25 26.9341 2.25C26.9358 2.25 26.9375 2.25 26.9392 2.25C26.9408 2.25 26.9425 2.25 26.9442 2.25C26.9459 2.25 26.9476 2.25 26.9493 2.25C26.951 2.25 26.9527 2.25 26.9544 2.25C26.9561 2.25 26.9578 2.25 26.9595 2.25C26.9612 2.25 26.9629 2.25 26.9646 2.25C26.9663 2.25 26.968 2.25 26.9697 2.25C26.9714 2.25 26.9731 2.25 26.9747 2.25C26.9764 2.25 26.9781 2.25 26.9798 2.25C26.9815 2.25 26.9832 2.25 26.9849 2.25C26.9866 2.25 26.9883 2.25 26.99 2.25C26.9917 2.25 26.9934 2.25 26.9951 2.25C26.9968 2.25 26.9985 2.25 27.0002 2.25C27.0018 2.25 27.0035 2.25 27.0052 2.25C27.0069 2.25 27.0086 2.25 27.0103 2.25C27.012 2.25 27.0137 2.25 27.0154 2.25C27.0171 2.25 27.0188 2.25 27.0205 2.25C27.0222 2.25 27.0239 2.25 27.0255 2.25C27.0272 2.25 27.0289 2.25 27.0306 2.25C27.0323 2.25 27.034 2.25 27.0357 2.25C27.0374 2.25 27.0391 2.25 27.0408 2.25C27.0425 2.25 27.0442 2.25 27.0459 2.25C27.0475 2.25 27.0492 2.25 27.0509 2.25C27.0526 2.25 27.0543 2.25 27.056 2.25C27.0577 2.25 27.0594 2.25 27.0611 2.25C27.0628 2.25 27.0645 2.25 27.0662 2.25C27.0678 2.25 27.0695 2.25 27.0712 2.25C27.0729 2.25 27.0746 2.25 27.0763 2.25C27.078 2.25 27.0797 2.25 27.0814 2.25C27.0831 2.25 27.0848 2.25 27.0864 2.25C27.0881 2.25 27.0898 2.25 27.0915 2.25C27.0932 2.25 27.0949 2.25 27.0966 2.25C27.0983 2.25 27.1 2.25 27.1017 2.25C27.1034 2.25 27.105 2.25 27.1067 2.25C27.1084 2.25 27.1101 2.25 27.1118 2.25C27.1135 2.25 27.1152 2.25 27.1169 2.25C27.1186 2.25 27.1203 2.25 27.1219 2.25C27.1236 2.25 27.1253 2.25 27.127 2.25C27.1287 2.25 27.1304 2.25 27.1321 2.25C27.1338 2.25 27.1355 2.25 27.1371 2.25C27.1388 2.25 27.1405 2.25 27.1422 2.25C27.1439 2.25 27.1456 2.25 27.1473 2.25C27.149 2.25 27.1507 2.25 27.1523 2.25C27.154 2.25 27.1557 2.25 27.1574 2.25C27.1591 2.25 27.1608 2.25 27.1625 2.25C27.1642 2.25 27.1659 2.25 27.1675 2.25C27.1692 2.25 27.1709 2.25 27.1726 2.25C27.1743 2.25 27.176 2.25 27.1777 2.25C27.1794 2.25 27.181 2.25 27.1827 2.25C27.1844 2.25 27.1861 2.25 27.1878 2.25C27.1895 2.25 27.1912 2.25 27.1929 2.25C27.1945 2.25 27.1962 2.25 27.1979 2.25C27.1996 2.25 27.2013 2.25 27.203 2.25C27.2047 2.25 27.2064 2.25 27.208 2.25C27.2097 2.25 27.2114 2.25 27.2131 2.25C27.2148 2.25 27.2165 2.25 27.2182 2.25C27.2198 2.25 27.2215 2.25 27.2232 2.25C27.2249 2.25 27.2266 2.25 27.2283 2.25C27.23 2.25 27.2317 2.25 27.2333 2.25C27.235 2.25 27.2367 2.25 27.2384 2.25C27.2401 2.25 27.2418 2.25 27.2435 2.25C27.2451 2.25 27.2468 2.25 27.2485 2.25C27.2502 2.25 27.2519 2.25 27.2536 2.25C27.2553 2.25 27.2569 2.25 27.2586 2.25C27.2603 2.25 27.262 2.25 27.2637 2.25C27.2654 2.25 27.267 2.25 27.2687 2.25C27.2704 2.25 27.2721 2.25 27.2738 2.25C27.2755 2.25 27.2772 2.25 27.2788 2.25C27.2805 2.25 27.2822 2.25 27.2839 2.25C27.2856 2.25 27.2873 2.25 27.2889 2.25C27.2906 2.25 27.2923 2.25 27.294 2.25C27.2957 2.25 27.2974 2.25 27.2991 2.25C27.3007 2.25 27.3024 2.25 27.3041 2.25C27.3058 2.25 27.3075 2.25 27.3092 2.25C27.3108 2.25 27.3125 2.25 27.3142 2.25C27.3159 2.25 27.3176 2.25 27.3193 2.25C27.3209 2.25 27.3226 2.25 27.3243 2.25C27.326 2.25 27.3277 2.25 27.3294 2.25C27.331 2.25 27.3327 2.25 27.3344 2.25C27.3361 2.25 27.3378 2.25 27.3395 2.25C27.3411 2.25 27.3428 2.25 27.3445 2.25C27.3462 2.25 27.3479 2.25 27.3496 2.25C27.3512 2.25 27.3529 2.25 27.3546 2.25C27.3563 2.25 27.358 2.25 27.3596 2.25C27.3613 2.25 27.363 2.25 27.3647 2.25C27.3664 2.25 27.3681 2.25 27.3697 2.25C27.3714 2.25 27.3731 2.25 27.3748 2.25C27.3765 2.25 27.3781 2.25 27.3798 2.25C27.3815 2.25 27.3832 2.25 27.3849 2.25C27.3866 2.25 27.3882 2.25 27.3899 2.25C27.3916 2.25 27.3933 2.25 27.395 2.25C27.3966 2.25 27.3983 2.25 27.4 2.25C27.4017 2.25 27.4034 2.25 27.405 2.25C27.4067 2.25 27.4084 2.25 27.4101 2.25C27.4118 2.25 27.4134 2.25 27.4151 2.25C27.4168 2.25 27.4185 2.25 27.4202 2.25C27.4218 2.25 27.4235 2.25 27.4252 2.25C27.4269 2.25 27.4286 2.25 27.4302 2.25C27.4319 2.25 27.4336 2.25 27.4353 2.25C27.437 2.25 27.4386 2.25 27.4403 2.25C27.442 2.25 27.4437 2.25 27.4454 2.25C27.447 2.25 27.4487 2.25 27.4504 2.25C27.4521 2.25 27.4538 2.25 27.4554 2.25C27.4571 2.25 27.4588 2.25 27.4605 2.25C27.4622 2.25 27.4638 2.25 27.4655 2.25C27.4672 2.25 27.4689 2.25 27.4706 2.25C27.4722 2.25 27.4739 2.25 27.4756 2.25C27.4773 2.25 27.4789 2.25 27.4806 2.25C27.4823 2.25 27.484 2.25 27.4857 2.25C27.4873 2.25 27.489 2.25 27.4907 2.25C27.4924 2.25 27.494 2.25 27.4957 2.25C27.4974 2.25 27.4991 2.25 27.5008 2.25C27.5024 2.25 27.5041 2.25 27.5058 2.25C27.5075 2.25 27.5091 2.25 27.5108 2.25C27.5125 2.25 27.5142 2.25 27.5159 2.25C27.5175 2.25 27.5192 2.25 27.5209 2.25C27.5226 2.25 27.5242 2.25 27.5259 2.25C27.5276 2.25 27.5293 2.25 27.5309 2.25C27.5326 2.25 27.5343 2.25 27.536 2.25C27.5377 2.25 27.5393 2.25 27.541 2.25C27.5427 2.25 27.5444 2.25 27.546 2.25C27.5477 2.25 27.5494 2.25 27.5511 2.25C27.5527 2.25 27.5544 2.25 27.5561 2.25C27.5578 2.25 27.5594 2.25 27.5611 2.25C27.5628 2.25 27.5645 2.25 27.5661 2.25C27.5678 2.25 27.5695 2.25 27.5712 2.25C27.5728 2.25 27.5745 2.25 27.5762 2.25C27.5779 2.25 27.5795 2.25 27.5812 2.25C27.5829 2.25 27.5846 2.25 27.5862 2.25C27.5879 2.25 27.5896 2.25 27.5913 2.25C27.5929 2.25 27.5946 2.25 27.5963 2.25C27.598 2.25 27.5996 2.25 27.6013 2.25C27.603 2.25 27.6047 2.25 27.6063 2.25C27.608 2.25 27.6097 2.25 27.6114 2.25C27.613 2.25 27.6147 2.25 27.6164 2.25C27.6181 2.25 27.6197 2.25 27.6214 2.25C27.6231 2.25 27.6248 2.25 27.6264 2.25C27.6281 2.25 27.6298 2.25 27.6315 2.25C27.6331 2.25 27.6348 2.25 27.6365 2.25C27.6381 2.25 27.6398 2.25 27.6415 2.25C27.6432 2.25 27.6448 2.25 27.6465 2.25C27.6482 2.25 27.6499 2.25 27.6515 2.25C27.6532 2.25 27.6549 2.25 27.6566 2.25C27.6582 2.25 27.6599 2.25 27.6616 2.25C27.6632 2.25 27.6649 2.25 27.6666 2.25C27.6683 2.25 27.6699 2.25 27.6716 2.25C27.6733 2.25 27.6749 2.25 27.6766 2.25C27.6783 2.25 27.68 2.25 27.6816 2.25C27.6833 2.25 27.685 2.25 27.6867 2.25C27.6883 2.25 27.69 2.25 27.6917 2.25C27.6933 2.25 27.695 2.25 27.6967 2.25C27.6984 2.25 27.7 2.25 27.7017 2.25C27.7034 2.25 27.705 2.25 27.7067 2.25C27.7084 2.25 27.7101 2.25 27.7117 2.25C27.7134 2.25 27.7151 2.25 27.7167 2.25C27.7184 2.25 27.7201 2.25 27.7217 2.25C27.7234 2.25 27.7251 2.25 27.7268 2.25C27.7284 2.25 27.7301 2.25 27.7318 2.25C27.7334 2.25 27.7351 2.25 27.7368 2.25C27.7385 2.25 27.7401 2.25 27.7418 2.25C27.7435 2.25 27.7451 2.25 27.7468 2.25C27.7485 2.25 27.7501 2.25 27.7518 2.25C27.7535 2.25 27.7552 2.25 27.7568 2.25C27.7585 2.25 27.7602 2.25 27.7618 2.25C27.7635 2.25 27.7652 2.25 27.7668 2.25C27.7685 2.25 27.7702 2.25 27.7718 2.25C27.7735 2.25 27.7752 2.25 27.7769 2.25C27.7785 2.25 27.7802 2.25 27.7819 2.25C27.7835 2.25 27.7852 2.25 27.7869 2.25C27.7885 2.25 27.7902 2.25 27.7919 2.25C27.7935 2.25 27.7952 2.25 27.7969 2.25C27.7985 2.25 27.8002 2.25 27.8019 2.25C27.8035 2.25 27.8052 2.25 27.8069 2.25C27.8086 2.25 27.8102 2.25 27.8119 2.25C27.8136 2.25 27.8152 2.25 27.8169 2.25C27.8186 2.25 27.8202 2.25 27.8219 2.25C27.8236 2.25 27.8252 2.25 27.8269 2.25C27.8286 2.25 27.8302 2.25 27.8319 2.25C27.8336 2.25 27.8352 2.25 27.8369 2.25C27.8386 2.25 27.8402 2.25 27.8419 2.25C27.8436 2.25 27.8452 2.25 27.8469 2.25C27.8486 2.25 27.8502 2.25 27.8519 2.25C27.8536 2.25 27.8552 2.25 27.8569 2.25C27.8586 2.25 27.8602 2.25 27.8619 2.25C27.8636 2.25 27.8652 2.25 27.8669 2.25C27.8686 2.25 27.8702 2.25 27.8719 2.25C27.8736 2.25 27.8752 2.25 27.8769 2.25C27.8786 2.25 27.8802 2.25 27.8819 2.25C27.8836 2.25 27.8852 2.25 27.8869 2.25C27.8886 2.25 27.8902 2.25 27.8919 2.25C27.8935 2.25 27.8952 2.25 27.8969 2.25C27.8985 2.25 27.9002 2.25 27.9019 2.25C27.9035 2.25 27.9052 2.25 27.9069 2.25C27.9085 2.25 27.9102 2.25 27.9119 2.25C27.9135 2.25 27.9152 2.25 27.9169 2.25C27.9185 2.25 27.9202 2.25 27.9218 2.25C27.9235 2.25 27.9252 2.25 27.9268 2.25C27.9285 2.25 27.9302 2.25 27.9318 2.25C27.9335 2.25 27.9352 2.25 27.9368 2.25C27.9385 2.25 27.9402 2.25 27.9418 2.25C27.9435 2.25 27.9451 2.25 27.9468 2.25C27.9485 2.25 27.9501 2.25 27.9518 2.25C27.9535 2.25 27.9551 2.25 27.9568 2.25C27.9585 2.25 27.9601 2.25 27.9618 2.25C27.9634 2.25 27.9651 2.25 27.9668 2.25C27.9684 2.25 27.9701 2.25 27.9718 2.25C27.9734 2.25 27.9751 2.25 27.9767 2.25C27.9784 2.25 27.9801 2.25 27.9817 2.25C27.9834 2.25 27.9851 2.25 27.9867 2.25C27.9884 2.25 27.99 2.25 27.9917 2.25C27.9934 2.25 27.995 2.25 27.9967 2.25C27.9984 2.25 28 2.25 28.0017 2.25C28.0033 2.25 28.005 2.25 28.0067 2.25C28.0083 2.25 28.01 2.25 28.0116 2.25C28.0133 2.25 28.015 2.25 28.0166 2.25C28.0183 2.25 28.02 2.25 28.0216 2.25C28.0233 2.25 28.0249 2.25 28.0266 2.25C28.0283 2.25 28.0299 2.25 28.0316 2.25C28.0332 2.25 28.0349 2.25 28.0366 2.25C28.0382 2.25 28.0399 2.25 28.0415 2.25C28.0432 2.25 28.0449 2.25 28.0465 2.25C28.0482 2.25 28.0498 2.25 28.0515 2.25C28.0532 2.25 28.0548 2.25 28.0565 2.25C28.0581 2.25 28.0598 2.25 28.0615 2.25C28.0631 2.25 28.0648 2.25 28.0664 2.25C28.0681 2.25 28.0698 2.25 28.0714 2.25C28.0731 2.25 28.0747 2.25 28.0764 2.25C28.0781 2.25 28.0797 2.25 28.0814 2.25C28.083 2.25 28.0847 2.25 28.0864 2.25C28.088 2.25 28.0897 2.25 28.0913 2.25C28.093 2.25 28.0947 2.25 28.0963 2.25C28.098 2.25 28.0996 2.25 28.1013 2.25C28.1029 2.25 28.1046 2.25 28.1063 2.25C28.1079 2.25 28.1096 2.25 28.1112 2.25C28.1129 2.25 28.1146 2.25 28.1162 2.25C28.1179 2.25 28.1195 2.25 28.1212 2.25C28.1228 2.25 28.1245 2.25 28.1262 2.25C28.1278 2.25 28.1295 2.25 28.1311 2.25C28.1328 2.25 28.1344 2.25 28.1361 2.25C28.1378 2.25 28.1394 2.25 28.1411 2.25C28.1427 2.25 28.1444 2.25 28.146 2.25C28.1477 2.25 28.1494 2.25 28.151 2.25C28.1527 2.25 28.1543 2.25 28.156 2.25C28.1576 2.25 28.1593 2.25 28.161 2.25C28.1626 2.25 28.1643 2.25 28.1659 2.25C28.1676 2.25 28.1692 2.25 28.1709 2.25C28.1726 2.25 28.1742 2.25 28.1759 2.25C28.1775 2.25 28.1792 2.25 28.1808 2.25C28.1825 2.25 28.1841 2.25 28.1858 2.25C28.1875 2.25 28.1891 2.25 28.1908 2.25C28.1924 2.25 28.1941 2.25 28.1957 2.25C28.1974 2.25 28.1991 2.25 28.2007 2.25C28.2024 2.25 28.204 2.25 28.2057 2.25C28.2073 2.25 28.209 2.25 28.2106 2.25C28.2123 2.25 28.2139 2.25 28.2156 2.25C28.2173 2.25 28.2189 2.25 28.2206 2.25C28.2222 2.25 28.2239 2.25 28.2255 2.25C28.2272 2.25 28.2288 2.25 28.2305 2.25C28.2321 2.25 28.2338 2.25 28.2355 2.25C28.2371 2.25 28.2388 2.25 28.2404 2.25C28.2421 2.25 28.2437 2.25 28.2454 2.25C28.247 2.25 28.2487 2.25 28.2503 2.25C28.252 2.25 28.2537 2.25 28.2553 2.25C28.257 2.25 28.2586 2.25 28.2603 2.25C28.2619 2.25 28.2636 2.25 28.2652 2.25C28.2669 2.25 28.2685 2.25 28.2702 2.25C28.2718 2.25 28.2735 2.25 28.2751 2.25C28.2768 2.25 28.2785 2.25 28.2801 2.25C28.2818 2.25 28.2834 2.25 28.2851 2.25C28.2867 2.25 28.2884 2.25 28.29 2.25C28.2917 2.25 28.2933 2.25 28.295 2.25C28.2966 2.25 28.2983 2.25 28.2999 2.25C28.3016 2.25 28.3032 2.25 28.3049 2.25C28.3065 2.25 28.3082 2.25 28.3098 2.25C28.3115 2.25 28.3132 2.25 28.3148 2.25C28.3165 2.25 28.3181 2.25 28.3198 2.25C28.3214 2.25 28.3231 2.25 28.3247 2.25C28.3264 2.25 28.328 2.25 28.3297 2.25C28.3313 2.25 28.333 2.25 28.3346 2.25C28.3363 2.25 28.3379 2.25 28.3396 2.25C28.3412 2.25 28.3429 2.25 28.3445 2.25C28.3462 2.25 28.3478 2.25 28.3495 2.25C28.3511 2.25 28.3528 2.25 28.3544 2.25C28.3561 2.25 28.3577 2.25 28.3594 2.25C28.361 2.25 28.3627 2.25 28.3643 2.25C28.366 2.25 28.3676 2.25 28.3693 2.25C28.3709 2.25 28.3726 2.25 28.3742 2.25C28.3759 2.25 28.3775 2.25 28.3792 2.25C28.3808 2.25 28.3825 2.25 28.3841 2.25C28.3858 2.25 28.3874 2.25 28.3891 2.25C28.3907 2.25 28.3924 2.25 28.394 2.25C28.3957 2.25 28.3973 2.25 28.399 2.25C28.4006 2.25 28.4023 2.25 28.4039 2.25C28.4056 2.25 28.4072 2.25 28.4089 2.25C28.4105 2.25 28.4122 2.25 28.4138 2.25C28.4155 2.25 28.4171 2.25 28.4188 2.25C28.4204 2.25 28.4221 2.25 28.4237 2.25C28.4254 2.25 28.427 2.25 28.4286 2.25C28.4303 2.25 28.4319 2.25 28.4336 2.25C28.4352 2.25 28.4369 2.25 28.4385 2.25C28.4402 2.25 28.4418 2.25 28.4435 2.25C28.4451 2.25 28.4468 2.25 28.4484 2.25C28.4501 2.25 28.4517 2.25 28.4534 2.25C28.455 2.25 28.4567 2.25 28.4583 2.25C28.46 2.25 28.4616 2.25 28.4632 2.25C28.4649 2.25 28.4665 2.25 28.4682 2.25C28.4698 2.25 28.4715 2.25 28.4731 2.25C28.4748 2.25 28.4764 2.25 28.4781 2.25C28.4797 2.25 28.4814 2.25 28.483 2.25C28.4847 2.25 28.4863 2.25 28.4879 2.25C28.4896 2.25 28.4912 2.25 28.4929 2.25C28.4945 2.25 28.4962 2.25 28.4978 2.25C28.4995 2.25 28.5011 2.25 28.5028 2.25C28.5044 2.25 28.5061 2.25 28.5077 2.25C28.5093 2.25 28.511 2.25 28.5126 2.25C28.5143 2.25 28.5159 2.25 28.5176 2.25C28.5192 2.25 28.5209 2.25 28.5225 2.25C28.5242 2.25 28.5258 2.25 28.5274 2.25C28.5291 2.25 28.5307 2.25 28.5324 2.25C28.534 2.25 28.5357 2.25 28.5373 2.25C28.539 2.25 28.5406 2.25 28.5422 2.25C28.5439 2.25 28.5455 2.25 28.5472 2.25C28.5488 2.25 28.5505 2.25 28.5521 2.25C28.5538 2.25 28.5554 2.25 28.557 2.25C28.5587 2.25 28.5603 2.25 28.562 2.25C28.5636 2.25 28.5653 2.25 28.5669 2.25C28.5685 2.25 28.5702 2.25 28.5718 2.25C28.5735 2.25 28.5751 2.25 28.5768 2.25C28.5784 2.25 28.5801 2.25 28.5817 2.25C28.5833 2.25 28.585 2.25 28.5866 2.25C28.5883 2.25 28.5899 2.25 28.5916 2.25C28.5932 2.25 28.5948 2.25 28.5965 2.25C28.5981 2.25 28.5998 2.25 28.6014 2.25C28.6031 2.25 28.6047 2.25 28.6063 2.25C28.608 2.25 28.6096 2.25 28.6113 2.25C28.6129 2.25 28.6145 2.25 28.6162 2.25C28.6178 2.25 28.6195 2.25 28.6211 2.25C28.6228 2.25 28.6244 2.25 28.626 2.25C28.6277 2.25 28.6293 2.25 28.631 2.25C28.6326 2.25 28.6342 2.25 28.6359 2.25C28.6375 2.25 28.6392 2.25 28.6408 2.25C28.6425 2.25 28.6441 2.25 28.6457 2.25C28.6474 2.25 28.649 2.25 28.6507 2.25C28.6523 2.25 28.6539 2.25 28.6556 2.25C28.6572 2.25 28.6589 2.25 28.6605 2.25C28.6621 2.25 28.6638 2.25 28.6654 2.25C28.6671 2.25 28.6687 2.25 28.6703 2.25C28.672 2.25 28.6736 2.25 28.6753 2.25C28.6769 2.25 28.6786 2.25 28.6802 2.25C28.6818 2.25 28.6835 2.25 28.6851 2.25C28.6867 2.25 28.6884 2.25 28.69 2.25C28.6917 2.25 28.6933 2.25 28.6949 2.25C28.6966 2.25 28.6982 2.25 28.6999 2.25C28.7015 2.25 28.7031 2.25 28.7048 2.25C28.7064 2.25 28.7081 2.25 28.7097 2.25C28.7113 2.25 28.713 2.25 28.7146 2.25C28.7163 2.25 28.7179 2.25 28.7195 2.25C28.7212 2.25 28.7228 2.25 28.7245 2.25C28.7261 2.25 28.7277 2.25 28.7294 2.25C28.731 2.25 28.7326 2.25 28.7343 2.25C28.7359 2.25 28.7376 2.25 28.7392 2.25C28.7408 2.25 28.7425 2.25 28.7441 2.25C28.7457 2.25 28.7474 2.25 28.749 2.25C28.7507 2.25 28.7523 2.25 28.7539 2.25C28.7556 2.25 28.7572 2.25 28.7588 2.25C28.7605 2.25 28.7621 2.25 28.7638 2.25C28.7654 2.25 28.767 2.25 28.7687 2.25C28.7703 2.25 28.7719 2.25 28.7736 2.25C28.7752 2.25 28.7769 2.25 28.7785 2.25C28.7801 2.25 28.7818 2.25 28.7834 2.25C28.785 2.25 28.7867 2.25 28.7883 2.25C28.79 2.25 28.7916 2.25 28.7932 2.25C28.7949 2.25 28.7965 2.25 28.7981 2.25C28.7998 2.25 28.8014 2.25 28.803 2.25C28.8047 2.25 28.8063 2.25 28.8079 2.25C28.8096 2.25 28.8112 2.25 28.8129 2.25C28.8145 2.25 28.8161 2.25 28.8178 2.25C28.8194 2.25 28.821 2.25 28.8227 2.25C28.8243 2.25 28.8259 2.25 28.8276 2.25C28.8292 2.25 28.8308 2.25 28.8325 2.25C28.8341 2.25 28.8358 2.25 28.8374 2.25C28.839 2.25 28.8407 2.25 28.8423 2.25C28.8439 2.25 28.8456 2.25 28.8472 2.25C28.8488 2.25 28.8505 2.25 28.8521 2.25C28.8537 2.25 28.8554 2.25 28.857 2.25C28.8586 2.25 28.8603 2.25 28.8619 2.25C28.8635 2.25 28.8652 2.25 28.8668 2.25C28.8684 2.25 28.8701 2.25 28.8717 2.25C28.8733 2.25 28.875 2.25 28.8766 2.25C28.8782 2.25 28.8799 2.25 28.8815 2.25C28.8831 2.25 28.8848 2.25 28.8864 2.25C28.888 2.25 28.8897 2.25 28.8913 2.25C28.8929 2.25 28.8946 2.25 28.8962 2.25C28.8978 2.25 28.8995 2.25 28.9011 2.25C28.9027 2.25 28.9044 2.25 28.906 2.25C28.9076 2.25 28.9093 2.25 28.9109 2.25C28.9125 2.25 28.9142 2.25 28.9158 2.25C28.9174 2.25 28.9191 2.25 28.9207 2.25C28.9223 2.25 28.924 2.25 28.9256 2.25C28.9272 2.25 28.9289 2.25 28.9305 2.25C28.9321 2.25 28.9338 2.25 28.9354 2.25C28.937 2.25 28.9386 2.25 28.9403 2.25C28.9419 2.25 28.9435 2.25 28.9452 2.25C28.9468 2.25 28.9484 2.25 28.9501 2.25C28.9517 2.25 28.9533 2.25 28.955 2.25C28.9566 2.25 28.9582 2.25 28.9599 2.25C28.9615 2.25 28.9631 2.25 28.9647 2.25C28.9664 2.25 28.968 2.25 28.9696 2.25C28.9713 2.25 28.9729 2.25 28.9745 2.25C28.9762 2.25 28.9778 2.25 28.9794 2.25C28.9811 2.25 28.9827 2.25 28.9843 2.25C28.9859 2.25 28.9876 2.25 28.9892 2.25C28.9908 2.25 28.9925 2.25 28.9941 2.25C28.9957 2.25 28.9974 2.25 28.999 2.25C29.0006 2.25 29.0022 2.25 29.0039 2.25C29.0055 2.25 29.0071 2.25 29.0088 2.25C29.0104 2.25 29.012 2.25 29.0136 2.25C29.0153 2.25 29.0169 2.25 29.0185 2.25C29.0202 2.25 29.0218 2.25 29.0234 2.25C29.0251 2.25 29.0267 2.25 29.0283 2.25C29.0299 2.25 29.0316 2.25 29.0332 2.25C29.0348 2.25 29.0365 2.25 29.0381 2.25C29.0397 2.25 29.0413 2.25 29.043 2.25C29.0446 2.25 29.0462 2.25 29.0478 2.25C29.0495 2.25 29.0511 2.25 29.0527 2.25C29.0544 2.25 29.056 2.25 29.0576 2.25C29.0592 2.25 29.0609 2.25 29.0625 2.25V1.25V0.25C29.0609 0.25 29.0592 0.25 29.0576 0.25C29.056 0.25 29.0544 0.25 29.0527 0.25C29.0511 0.25 29.0495 0.25 29.0478 0.25C29.0462 0.25 29.0446 0.25 29.043 0.25C29.0413 0.25 29.0397 0.25 29.0381 0.25C29.0365 0.25 29.0348 0.25 29.0332 0.25C29.0316 0.25 29.0299 0.25 29.0283 0.25C29.0267 0.25 29.0251 0.25 29.0234 0.25C29.0218 0.25 29.0202 0.25 29.0185 0.25C29.0169 0.25 29.0153 0.25 29.0136 0.25C29.012 0.25 29.0104 0.25 29.0088 0.25C29.0071 0.25 29.0055 0.25 29.0039 0.25C29.0022 0.25 29.0006 0.25 28.999 0.25C28.9974 0.25 28.9957 0.25 28.9941 0.25C28.9925 0.25 28.9908 0.25 28.9892 0.25C28.9876 0.25 28.9859 0.25 28.9843 0.25C28.9827 0.25 28.9811 0.25 28.9794 0.25C28.9778 0.25 28.9762 0.25 28.9745 0.25C28.9729 0.25 28.9713 0.25 28.9696 0.25C28.968 0.25 28.9664 0.25 28.9647 0.25C28.9631 0.25 28.9615 0.25 28.9599 0.25C28.9582 0.25 28.9566 0.25 28.955 0.25C28.9533 0.25 28.9517 0.25 28.9501 0.25C28.9484 0.25 28.9468 0.25 28.9452 0.25C28.9435 0.25 28.9419 0.25 28.9403 0.25C28.9386 0.25 28.937 0.25 28.9354 0.25C28.9338 0.25 28.9321 0.25 28.9305 0.25C28.9289 0.25 28.9272 0.25 28.9256 0.25C28.924 0.25 28.9223 0.25 28.9207 0.25C28.9191 0.25 28.9174 0.25 28.9158 0.25C28.9142 0.25 28.9125 0.25 28.9109 0.25C28.9093 0.25 28.9076 0.25 28.906 0.25C28.9044 0.25 28.9027 0.25 28.9011 0.25C28.8995 0.25 28.8978 0.25 28.8962 0.25C28.8946 0.25 28.8929 0.25 28.8913 0.25C28.8897 0.25 28.888 0.25 28.8864 0.25C28.8848 0.25 28.8831 0.25 28.8815 0.25C28.8799 0.25 28.8782 0.25 28.8766 0.25C28.875 0.25 28.8733 0.25 28.8717 0.25C28.8701 0.25 28.8684 0.25 28.8668 0.25C28.8652 0.25 28.8635 0.25 28.8619 0.25C28.8603 0.25 28.8586 0.25 28.857 0.25C28.8554 0.25 28.8537 0.25 28.8521 0.25C28.8505 0.25 28.8488 0.25 28.8472 0.25C28.8456 0.25 28.8439 0.25 28.8423 0.25C28.8407 0.25 28.839 0.25 28.8374 0.25C28.8358 0.25 28.8341 0.25 28.8325 0.25C28.8308 0.25 28.8292 0.25 28.8276 0.25C28.8259 0.25 28.8243 0.25 28.8227 0.25C28.821 0.25 28.8194 0.25 28.8178 0.25C28.8161 0.25 28.8145 0.25 28.8129 0.25C28.8112 0.25 28.8096 0.25 28.8079 0.25C28.8063 0.25 28.8047 0.25 28.803 0.25C28.8014 0.25 28.7998 0.25 28.7981 0.25C28.7965 0.25 28.7949 0.25 28.7932 0.25C28.7916 0.25 28.79 0.25 28.7883 0.25C28.7867 0.25 28.785 0.25 28.7834 0.25C28.7818 0.25 28.7801 0.25 28.7785 0.25C28.7769 0.25 28.7752 0.25 28.7736 0.25C28.7719 0.25 28.7703 0.25 28.7687 0.25C28.767 0.25 28.7654 0.25 28.7638 0.25C28.7621 0.25 28.7605 0.25 28.7588 0.25C28.7572 0.25 28.7556 0.25 28.7539 0.25C28.7523 0.25 28.7507 0.25 28.749 0.25C28.7474 0.25 28.7457 0.25 28.7441 0.25C28.7425 0.25 28.7408 0.25 28.7392 0.25C28.7376 0.25 28.7359 0.25 28.7343 0.25C28.7326 0.25 28.731 0.25 28.7294 0.25C28.7277 0.25 28.7261 0.25 28.7245 0.25C28.7228 0.25 28.7212 0.25 28.7195 0.25C28.7179 0.25 28.7163 0.25 28.7146 0.25C28.713 0.25 28.7113 0.25 28.7097 0.25C28.7081 0.25 28.7064 0.25 28.7048 0.25C28.7031 0.25 28.7015 0.25 28.6999 0.25C28.6982 0.25 28.6966 0.25 28.6949 0.25C28.6933 0.25 28.6917 0.25 28.69 0.25C28.6884 0.25 28.6867 0.25 28.6851 0.25C28.6835 0.25 28.6818 0.25 28.6802 0.25C28.6786 0.25 28.6769 0.25 28.6753 0.25C28.6736 0.25 28.672 0.25 28.6703 0.25C28.6687 0.25 28.6671 0.25 28.6654 0.25C28.6638 0.25 28.6621 0.25 28.6605 0.25C28.6589 0.25 28.6572 0.25 28.6556 0.25C28.6539 0.25 28.6523 0.25 28.6507 0.25C28.649 0.25 28.6474 0.25 28.6457 0.25C28.6441 0.25 28.6425 0.25 28.6408 0.25C28.6392 0.25 28.6375 0.25 28.6359 0.25C28.6342 0.25 28.6326 0.25 28.631 0.25C28.6293 0.25 28.6277 0.25 28.626 0.25C28.6244 0.25 28.6228 0.25 28.6211 0.25C28.6195 0.25 28.6178 0.25 28.6162 0.25C28.6145 0.25 28.6129 0.25 28.6113 0.25C28.6096 0.25 28.608 0.25 28.6063 0.25C28.6047 0.25 28.6031 0.25 28.6014 0.25C28.5998 0.25 28.5981 0.25 28.5965 0.25C28.5948 0.25 28.5932 0.25 28.5916 0.25C28.5899 0.25 28.5883 0.25 28.5866 0.25C28.585 0.25 28.5833 0.25 28.5817 0.25C28.5801 0.25 28.5784 0.25 28.5768 0.25C28.5751 0.25 28.5735 0.25 28.5718 0.25C28.5702 0.25 28.5685 0.25 28.5669 0.25C28.5653 0.25 28.5636 0.25 28.562 0.25C28.5603 0.25 28.5587 0.25 28.557 0.25C28.5554 0.25 28.5538 0.25 28.5521 0.25C28.5505 0.25 28.5488 0.25 28.5472 0.25C28.5455 0.25 28.5439 0.25 28.5422 0.25C28.5406 0.25 28.539 0.25 28.5373 0.25C28.5357 0.25 28.534 0.25 28.5324 0.25C28.5307 0.25 28.5291 0.25 28.5274 0.25C28.5258 0.25 28.5242 0.25 28.5225 0.25C28.5209 0.25 28.5192 0.25 28.5176 0.25C28.5159 0.25 28.5143 0.25 28.5126 0.25C28.511 0.25 28.5093 0.25 28.5077 0.25C28.5061 0.25 28.5044 0.25 28.5028 0.25C28.5011 0.25 28.4995 0.25 28.4978 0.25C28.4962 0.25 28.4945 0.25 28.4929 0.25C28.4912 0.25 28.4896 0.25 28.4879 0.25C28.4863 0.25 28.4847 0.25 28.483 0.25C28.4814 0.25 28.4797 0.25 28.4781 0.25C28.4764 0.25 28.4748 0.25 28.4731 0.25C28.4715 0.25 28.4698 0.25 28.4682 0.25C28.4665 0.25 28.4649 0.25 28.4632 0.25C28.4616 0.25 28.46 0.25 28.4583 0.25C28.4567 0.25 28.455 0.25 28.4534 0.25C28.4517 0.25 28.4501 0.25 28.4484 0.25C28.4468 0.25 28.4451 0.25 28.4435 0.25C28.4418 0.25 28.4402 0.25 28.4385 0.25C28.4369 0.25 28.4352 0.25 28.4336 0.25C28.4319 0.25 28.4303 0.25 28.4286 0.25C28.427 0.25 28.4254 0.25 28.4237 0.25C28.4221 0.25 28.4204 0.25 28.4188 0.25C28.4171 0.25 28.4155 0.25 28.4138 0.25C28.4122 0.25 28.4105 0.25 28.4089 0.25C28.4072 0.25 28.4056 0.25 28.4039 0.25C28.4023 0.25 28.4006 0.25 28.399 0.25C28.3973 0.25 28.3957 0.25 28.394 0.25C28.3924 0.25 28.3907 0.25 28.3891 0.25C28.3874 0.25 28.3858 0.25 28.3841 0.25C28.3825 0.25 28.3808 0.25 28.3792 0.25C28.3775 0.25 28.3759 0.25 28.3742 0.25C28.3726 0.25 28.3709 0.25 28.3693 0.25C28.3676 0.25 28.366 0.25 28.3643 0.25C28.3627 0.25 28.361 0.25 28.3594 0.25C28.3577 0.25 28.3561 0.25 28.3544 0.25C28.3528 0.25 28.3511 0.25 28.3495 0.25C28.3478 0.25 28.3462 0.25 28.3445 0.25C28.3429 0.25 28.3412 0.25 28.3396 0.25C28.3379 0.25 28.3363 0.25 28.3346 0.25C28.333 0.25 28.3313 0.25 28.3297 0.25C28.328 0.25 28.3264 0.25 28.3247 0.25C28.3231 0.25 28.3214 0.25 28.3198 0.25C28.3181 0.25 28.3165 0.25 28.3148 0.25C28.3132 0.25 28.3115 0.25 28.3098 0.25C28.3082 0.25 28.3065 0.25 28.3049 0.25C28.3032 0.25 28.3016 0.25 28.2999 0.25C28.2983 0.25 28.2966 0.25 28.295 0.25C28.2933 0.25 28.2917 0.25 28.29 0.25C28.2884 0.25 28.2867 0.25 28.2851 0.25C28.2834 0.25 28.2818 0.25 28.2801 0.25C28.2785 0.25 28.2768 0.25 28.2751 0.25C28.2735 0.25 28.2718 0.25 28.2702 0.25C28.2685 0.25 28.2669 0.25 28.2652 0.25C28.2636 0.25 28.2619 0.25 28.2603 0.25C28.2586 0.25 28.257 0.25 28.2553 0.25C28.2537 0.25 28.252 0.25 28.2503 0.25C28.2487 0.25 28.247 0.25 28.2454 0.25C28.2437 0.25 28.2421 0.25 28.2404 0.25C28.2388 0.25 28.2371 0.25 28.2355 0.25C28.2338 0.25 28.2321 0.25 28.2305 0.25C28.2288 0.25 28.2272 0.25 28.2255 0.25C28.2239 0.25 28.2222 0.25 28.2206 0.25C28.2189 0.25 28.2173 0.25 28.2156 0.25C28.2139 0.25 28.2123 0.25 28.2106 0.25C28.209 0.25 28.2073 0.25 28.2057 0.25C28.204 0.25 28.2024 0.25 28.2007 0.25C28.1991 0.25 28.1974 0.25 28.1957 0.25C28.1941 0.25 28.1924 0.25 28.1908 0.25C28.1891 0.25 28.1875 0.25 28.1858 0.25C28.1841 0.25 28.1825 0.25 28.1808 0.25C28.1792 0.25 28.1775 0.25 28.1759 0.25C28.1742 0.25 28.1726 0.25 28.1709 0.25C28.1692 0.25 28.1676 0.25 28.1659 0.25C28.1643 0.25 28.1626 0.25 28.161 0.25C28.1593 0.25 28.1576 0.25 28.156 0.25C28.1543 0.25 28.1527 0.25 28.151 0.25C28.1494 0.25 28.1477 0.25 28.146 0.25C28.1444 0.25 28.1427 0.25 28.1411 0.25C28.1394 0.25 28.1378 0.25 28.1361 0.25C28.1344 0.25 28.1328 0.25 28.1311 0.25C28.1295 0.25 28.1278 0.25 28.1262 0.25C28.1245 0.25 28.1228 0.25 28.1212 0.25C28.1195 0.25 28.1179 0.25 28.1162 0.25C28.1146 0.25 28.1129 0.25 28.1112 0.25C28.1096 0.25 28.1079 0.25 28.1063 0.25C28.1046 0.25 28.1029 0.25 28.1013 0.25C28.0996 0.25 28.098 0.25 28.0963 0.25C28.0947 0.25 28.093 0.25 28.0913 0.25C28.0897 0.25 28.088 0.25 28.0864 0.25C28.0847 0.25 28.083 0.25 28.0814 0.25C28.0797 0.25 28.0781 0.25 28.0764 0.25C28.0747 0.25 28.0731 0.25 28.0714 0.25C28.0698 0.25 28.0681 0.25 28.0664 0.25C28.0648 0.25 28.0631 0.25 28.0615 0.25C28.0598 0.25 28.0581 0.25 28.0565 0.25C28.0548 0.25 28.0532 0.25 28.0515 0.25C28.0498 0.25 28.0482 0.25 28.0465 0.25C28.0449 0.25 28.0432 0.25 28.0415 0.25C28.0399 0.25 28.0382 0.25 28.0366 0.25C28.0349 0.25 28.0332 0.25 28.0316 0.25C28.0299 0.25 28.0283 0.25 28.0266 0.25C28.0249 0.25 28.0233 0.25 28.0216 0.25C28.02 0.25 28.0183 0.25 28.0166 0.25C28.015 0.25 28.0133 0.25 28.0116 0.25C28.01 0.25 28.0083 0.25 28.0067 0.25C28.005 0.25 28.0033 0.25 28.0017 0.25C28 0.25 27.9984 0.25 27.9967 0.25C27.995 0.25 27.9934 0.25 27.9917 0.25C27.99 0.25 27.9884 0.25 27.9867 0.25C27.9851 0.25 27.9834 0.25 27.9817 0.25C27.9801 0.25 27.9784 0.25 27.9767 0.25C27.9751 0.25 27.9734 0.25 27.9718 0.25C27.9701 0.25 27.9684 0.25 27.9668 0.25C27.9651 0.25 27.9634 0.25 27.9618 0.25C27.9601 0.25 27.9585 0.25 27.9568 0.25C27.9551 0.25 27.9535 0.25 27.9518 0.25C27.9501 0.25 27.9485 0.25 27.9468 0.25C27.9451 0.25 27.9435 0.25 27.9418 0.25C27.9402 0.25 27.9385 0.25 27.9368 0.25C27.9352 0.25 27.9335 0.25 27.9318 0.25C27.9302 0.25 27.9285 0.25 27.9268 0.25C27.9252 0.25 27.9235 0.25 27.9218 0.25C27.9202 0.25 27.9185 0.25 27.9169 0.25C27.9152 0.25 27.9135 0.25 27.9119 0.25C27.9102 0.25 27.9085 0.25 27.9069 0.25C27.9052 0.25 27.9035 0.25 27.9019 0.25C27.9002 0.25 27.8985 0.25 27.8969 0.25C27.8952 0.25 27.8935 0.25 27.8919 0.25C27.8902 0.25 27.8886 0.25 27.8869 0.25C27.8852 0.25 27.8836 0.25 27.8819 0.25C27.8802 0.25 27.8786 0.25 27.8769 0.25C27.8752 0.25 27.8736 0.25 27.8719 0.25C27.8702 0.25 27.8686 0.25 27.8669 0.25C27.8652 0.25 27.8636 0.25 27.8619 0.25C27.8602 0.25 27.8586 0.25 27.8569 0.25C27.8552 0.25 27.8536 0.25 27.8519 0.25C27.8502 0.25 27.8486 0.25 27.8469 0.25C27.8452 0.25 27.8436 0.25 27.8419 0.25C27.8402 0.25 27.8386 0.25 27.8369 0.25C27.8352 0.25 27.8336 0.25 27.8319 0.25C27.8302 0.25 27.8286 0.25 27.8269 0.25C27.8252 0.25 27.8236 0.25 27.8219 0.25C27.8202 0.25 27.8186 0.25 27.8169 0.25C27.8152 0.25 27.8136 0.25 27.8119 0.25C27.8102 0.25 27.8086 0.25 27.8069 0.25C27.8052 0.25 27.8035 0.25 27.8019 0.25C27.8002 0.25 27.7985 0.25 27.7969 0.25C27.7952 0.25 27.7935 0.25 27.7919 0.25C27.7902 0.25 27.7885 0.25 27.7869 0.25C27.7852 0.25 27.7835 0.25 27.7819 0.25C27.7802 0.25 27.7785 0.25 27.7769 0.25C27.7752 0.25 27.7735 0.25 27.7718 0.25C27.7702 0.25 27.7685 0.25 27.7668 0.25C27.7652 0.25 27.7635 0.25 27.7618 0.25C27.7602 0.25 27.7585 0.25 27.7568 0.25C27.7552 0.25 27.7535 0.25 27.7518 0.25C27.7501 0.25 27.7485 0.25 27.7468 0.25C27.7451 0.25 27.7435 0.25 27.7418 0.25C27.7401 0.25 27.7385 0.25 27.7368 0.25C27.7351 0.25 27.7334 0.25 27.7318 0.25C27.7301 0.25 27.7284 0.25 27.7268 0.25C27.7251 0.25 27.7234 0.25 27.7217 0.25C27.7201 0.25 27.7184 0.25 27.7167 0.25C27.7151 0.25 27.7134 0.25 27.7117 0.25C27.7101 0.25 27.7084 0.25 27.7067 0.25C27.705 0.25 27.7034 0.25 27.7017 0.25C27.7 0.25 27.6984 0.25 27.6967 0.25C27.695 0.25 27.6933 0.25 27.6917 0.25C27.69 0.25 27.6883 0.25 27.6867 0.25C27.685 0.25 27.6833 0.25 27.6816 0.25C27.68 0.25 27.6783 0.25 27.6766 0.25C27.6749 0.25 27.6733 0.25 27.6716 0.25C27.6699 0.25 27.6683 0.25 27.6666 0.25C27.6649 0.25 27.6632 0.25 27.6616 0.25C27.6599 0.25 27.6582 0.25 27.6566 0.25C27.6549 0.25 27.6532 0.25 27.6515 0.25C27.6499 0.25 27.6482 0.25 27.6465 0.25C27.6448 0.25 27.6432 0.25 27.6415 0.25C27.6398 0.25 27.6381 0.25 27.6365 0.25C27.6348 0.25 27.6331 0.25 27.6315 0.25C27.6298 0.25 27.6281 0.25 27.6264 0.25C27.6248 0.25 27.6231 0.25 27.6214 0.25C27.6197 0.25 27.6181 0.25 27.6164 0.25C27.6147 0.25 27.613 0.25 27.6114 0.25C27.6097 0.25 27.608 0.25 27.6063 0.25C27.6047 0.25 27.603 0.25 27.6013 0.25C27.5996 0.25 27.598 0.25 27.5963 0.25C27.5946 0.25 27.5929 0.25 27.5913 0.25C27.5896 0.25 27.5879 0.25 27.5862 0.25C27.5846 0.25 27.5829 0.25 27.5812 0.25C27.5795 0.25 27.5779 0.25 27.5762 0.25C27.5745 0.25 27.5728 0.25 27.5712 0.25C27.5695 0.25 27.5678 0.25 27.5661 0.25C27.5645 0.25 27.5628 0.25 27.5611 0.25C27.5594 0.25 27.5578 0.25 27.5561 0.25C27.5544 0.25 27.5527 0.25 27.5511 0.25C27.5494 0.25 27.5477 0.25 27.546 0.25C27.5444 0.25 27.5427 0.25 27.541 0.25C27.5393 0.25 27.5377 0.25 27.536 0.25C27.5343 0.25 27.5326 0.25 27.5309 0.25C27.5293 0.25 27.5276 0.25 27.5259 0.25C27.5242 0.25 27.5226 0.25 27.5209 0.25C27.5192 0.25 27.5175 0.25 27.5159 0.25C27.5142 0.25 27.5125 0.25 27.5108 0.25C27.5091 0.25 27.5075 0.25 27.5058 0.25C27.5041 0.25 27.5024 0.25 27.5008 0.25C27.4991 0.25 27.4974 0.25 27.4957 0.25C27.494 0.25 27.4924 0.25 27.4907 0.25C27.489 0.25 27.4873 0.25 27.4857 0.25C27.484 0.25 27.4823 0.25 27.4806 0.25C27.4789 0.25 27.4773 0.25 27.4756 0.25C27.4739 0.25 27.4722 0.25 27.4706 0.25C27.4689 0.25 27.4672 0.25 27.4655 0.25C27.4638 0.25 27.4622 0.25 27.4605 0.25C27.4588 0.25 27.4571 0.25 27.4554 0.25C27.4538 0.25 27.4521 0.25 27.4504 0.25C27.4487 0.25 27.447 0.25 27.4454 0.25C27.4437 0.25 27.442 0.25 27.4403 0.25C27.4386 0.25 27.437 0.25 27.4353 0.25C27.4336 0.25 27.4319 0.25 27.4302 0.25C27.4286 0.25 27.4269 0.25 27.4252 0.25C27.4235 0.25 27.4218 0.25 27.4202 0.25C27.4185 0.25 27.4168 0.25 27.4151 0.25C27.4134 0.25 27.4118 0.25 27.4101 0.25C27.4084 0.25 27.4067 0.25 27.405 0.25C27.4034 0.25 27.4017 0.25 27.4 0.25C27.3983 0.25 27.3966 0.25 27.395 0.25C27.3933 0.25 27.3916 0.25 27.3899 0.25C27.3882 0.25 27.3866 0.25 27.3849 0.25C27.3832 0.25 27.3815 0.25 27.3798 0.25C27.3781 0.25 27.3765 0.25 27.3748 0.25C27.3731 0.25 27.3714 0.25 27.3697 0.25C27.3681 0.25 27.3664 0.25 27.3647 0.25C27.363 0.25 27.3613 0.25 27.3596 0.25C27.358 0.25 27.3563 0.25 27.3546 0.25C27.3529 0.25 27.3512 0.25 27.3496 0.25C27.3479 0.25 27.3462 0.25 27.3445 0.25C27.3428 0.25 27.3411 0.25 27.3395 0.25C27.3378 0.25 27.3361 0.25 27.3344 0.25C27.3327 0.25 27.331 0.25 27.3294 0.25C27.3277 0.25 27.326 0.25 27.3243 0.25C27.3226 0.25 27.3209 0.25 27.3193 0.25C27.3176 0.25 27.3159 0.25 27.3142 0.25C27.3125 0.25 27.3108 0.25 27.3092 0.25C27.3075 0.25 27.3058 0.25 27.3041 0.25C27.3024 0.25 27.3007 0.25 27.2991 0.25C27.2974 0.25 27.2957 0.25 27.294 0.25C27.2923 0.25 27.2906 0.25 27.2889 0.25C27.2873 0.25 27.2856 0.25 27.2839 0.25C27.2822 0.25 27.2805 0.25 27.2788 0.25C27.2772 0.25 27.2755 0.25 27.2738 0.25C27.2721 0.25 27.2704 0.25 27.2687 0.25C27.267 0.25 27.2654 0.25 27.2637 0.25C27.262 0.25 27.2603 0.25 27.2586 0.25C27.2569 0.25 27.2553 0.25 27.2536 0.25C27.2519 0.25 27.2502 0.25 27.2485 0.25C27.2468 0.25 27.2451 0.25 27.2435 0.25C27.2418 0.25 27.2401 0.25 27.2384 0.25C27.2367 0.25 27.235 0.25 27.2333 0.25C27.2317 0.25 27.23 0.25 27.2283 0.25C27.2266 0.25 27.2249 0.25 27.2232 0.25C27.2215 0.25 27.2198 0.25 27.2182 0.25C27.2165 0.25 27.2148 0.25 27.2131 0.25C27.2114 0.25 27.2097 0.25 27.208 0.25C27.2064 0.25 27.2047 0.25 27.203 0.25C27.2013 0.25 27.1996 0.25 27.1979 0.25C27.1962 0.25 27.1945 0.25 27.1929 0.25C27.1912 0.25 27.1895 0.25 27.1878 0.25C27.1861 0.25 27.1844 0.25 27.1827 0.25C27.181 0.25 27.1794 0.25 27.1777 0.25C27.176 0.25 27.1743 0.25 27.1726 0.25C27.1709 0.25 27.1692 0.25 27.1675 0.25C27.1659 0.25 27.1642 0.25 27.1625 0.25C27.1608 0.25 27.1591 0.25 27.1574 0.25C27.1557 0.25 27.154 0.25 27.1523 0.25C27.1507 0.25 27.149 0.25 27.1473 0.25C27.1456 0.25 27.1439 0.25 27.1422 0.25C27.1405 0.25 27.1388 0.25 27.1371 0.25C27.1355 0.25 27.1338 0.25 27.1321 0.25C27.1304 0.25 27.1287 0.25 27.127 0.25C27.1253 0.25 27.1236 0.25 27.1219 0.25C27.1203 0.25 27.1186 0.25 27.1169 0.25C27.1152 0.25 27.1135 0.25 27.1118 0.25C27.1101 0.25 27.1084 0.25 27.1067 0.25C27.105 0.25 27.1034 0.25 27.1017 0.25C27.1 0.25 27.0983 0.25 27.0966 0.25C27.0949 0.25 27.0932 0.25 27.0915 0.25C27.0898 0.25 27.0881 0.25 27.0864 0.25C27.0848 0.25 27.0831 0.25 27.0814 0.25C27.0797 0.25 27.078 0.25 27.0763 0.25C27.0746 0.25 27.0729 0.25 27.0712 0.25C27.0695 0.25 27.0678 0.25 27.0662 0.25C27.0645 0.25 27.0628 0.25 27.0611 0.25C27.0594 0.25 27.0577 0.25 27.056 0.25C27.0543 0.25 27.0526 0.25 27.0509 0.25C27.0492 0.25 27.0475 0.25 27.0459 0.25C27.0442 0.25 27.0425 0.25 27.0408 0.25C27.0391 0.25 27.0374 0.25 27.0357 0.25C27.034 0.25 27.0323 0.25 27.0306 0.25C27.0289 0.25 27.0272 0.25 27.0255 0.25C27.0239 0.25 27.0222 0.25 27.0205 0.25C27.0188 0.25 27.0171 0.25 27.0154 0.25C27.0137 0.25 27.012 0.25 27.0103 0.25C27.0086 0.25 27.0069 0.25 27.0052 0.25C27.0035 0.25 27.0018 0.25 27.0002 0.25C26.9985 0.25 26.9968 0.25 26.9951 0.25C26.9934 0.25 26.9917 0.25 26.99 0.25C26.9883 0.25 26.9866 0.25 26.9849 0.25C26.9832 0.25 26.9815 0.25 26.9798 0.25C26.9781 0.25 26.9764 0.25 26.9747 0.25C26.9731 0.25 26.9714 0.25 26.9697 0.25C26.968 0.25 26.9663 0.25 26.9646 0.25C26.9629 0.25 26.9612 0.25 26.9595 0.25C26.9578 0.25 26.9561 0.25 26.9544 0.25C26.9527 0.25 26.951 0.25 26.9493 0.25C26.9476 0.25 26.9459 0.25 26.9442 0.25C26.9425 0.25 26.9408 0.25 26.9392 0.25C26.9375 0.25 26.9358 0.25 26.9341 0.25C26.9324 0.25 26.9307 0.25 26.929 0.25C26.9273 0.25 26.9256 0.25 26.9239 0.25C26.9222 0.25 26.9205 0.25 26.9188 0.25C26.9171 0.25 26.9154 0.25 26.9137 0.25C26.912 0.25 26.9103 0.25 26.9086 0.25C26.9069 0.25 26.9052 0.25 26.9035 0.25C26.9018 0.25 26.9001 0.25 26.8985 0.25C26.8968 0.25 26.8951 0.25 26.8934 0.25C26.8917 0.25 26.89 0.25 26.8883 0.25C26.8866 0.25 26.8849 0.25 26.8832 0.25C26.8815 0.25 26.8798 0.25 26.8781 0.25C26.8764 0.25 26.8747 0.25 26.873 0.25C26.8713 0.25 26.8696 0.25 26.8679 0.25C26.8662 0.25 26.8645 0.25 26.8628 0.25C26.8611 0.25 26.8594 0.25 26.8577 0.25C26.856 0.25 26.8543 0.25 26.8526 0.25C26.8509 0.25 26.8492 0.25 26.8475 0.25C26.8458 0.25 26.8441 0.25 26.8424 0.25C26.8407 0.25 26.839 0.25 26.8373 0.25C26.8356 0.25 26.8339 0.25 26.8322 0.25C26.8305 0.25 26.8288 0.25 26.8271 0.25C26.8254 0.25 26.8238 0.25 26.8221 0.25C26.8204 0.25 26.8187 0.25 26.817 0.25C26.8153 0.25 26.8136 0.25 26.8119 0.25C26.8102 0.25 26.8085 0.25 26.8068 0.25C26.8051 0.25 26.8034 0.25 26.8017 0.25C26.8 0.25 26.7983 0.25 26.7966 0.25C26.7949 0.25 26.7932 0.25 26.7915 0.25C26.7898 0.25 26.7881 0.25 26.7864 0.25C26.7847 0.25 26.783 0.25 26.7813 0.25C26.7796 0.25 26.7779 0.25 26.7762 0.25C26.7745 0.25 26.7728 0.25 26.7711 0.25C26.7694 0.25 26.7677 0.25 26.766 0.25C26.7643 0.25 26.7626 0.25 26.7609 0.25C26.7592 0.25 26.7575 0.25 26.7558 0.25C26.7541 0.25 26.7523 0.25 26.7506 0.25C26.7489 0.25 26.7472 0.25 26.7455 0.25C26.7438 0.25 26.7421 0.25 26.7404 0.25C26.7387 0.25 26.737 0.25 26.7353 0.25C26.7336 0.25 26.7319 0.25 26.7302 0.25C26.7285 0.25 26.7268 0.25 26.7251 0.25C26.7234 0.25 26.7217 0.25 26.72 0.25C26.7183 0.25 26.7166 0.25 26.7149 0.25C26.7132 0.25 26.7115 0.25 26.7098 0.25C26.7081 0.25 26.7064 0.25 26.7047 0.25C26.703 0.25 26.7013 0.25 26.6996 0.25C26.6979 0.25 26.6962 0.25 26.6945 0.25C26.6928 0.25 26.6911 0.25 26.6894 0.25C26.6877 0.25 26.686 0.25 26.6843 0.25C26.6826 0.25 26.6809 0.25 26.6792 0.25C26.6774 0.25 26.6757 0.25 26.674 0.25C26.6723 0.25 26.6706 0.25 26.6689 0.25C26.6672 0.25 26.6655 0.25 26.6638 0.25C26.6621 0.25 26.6604 0.25 26.6587 0.25C26.657 0.25 26.6553 0.25 26.6536 0.25C26.6519 0.25 26.6502 0.25 26.6485 0.25C26.6468 0.25 26.6451 0.25 26.6434 0.25C26.6417 0.25 26.64 0.25 26.6383 0.25C26.6365 0.25 26.6348 0.25 26.6331 0.25C26.6314 0.25 26.6297 0.25 26.628 0.25C26.6263 0.25 26.6246 0.25 26.6229 0.25C26.6212 0.25 26.6195 0.25 26.6178 0.25C26.6161 0.25 26.6144 0.25 26.6127 0.25C26.611 0.25 26.6093 0.25 26.6076 0.25C26.6059 0.25 26.6041 0.25 26.6024 0.25C26.6007 0.25 26.599 0.25 26.5973 0.25C26.5956 0.25 26.5939 0.25 26.5922 0.25C26.5905 0.25 26.5888 0.25 26.5871 0.25C26.5854 0.25 26.5837 0.25 26.582 0.25C26.5803 0.25 26.5786 0.25 26.5769 0.25C26.5751 0.25 26.5734 0.25 26.5717 0.25C26.57 0.25 26.5683 0.25 26.5666 0.25C26.5649 0.25 26.5632 0.25 26.5615 0.25C26.5598 0.25 26.5581 0.25 26.5564 0.25C26.5547 0.25 26.553 0.25 26.5512 0.25C26.5495 0.25 26.5478 0.25 26.5461 0.25C26.5444 0.25 26.5427 0.25 26.541 0.25C26.5393 0.25 26.5376 0.25 26.5359 0.25C26.5342 0.25 26.5325 0.25 26.5308 0.25C26.529 0.25 26.5273 0.25 26.5256 0.25C26.5239 0.25 26.5222 0.25 26.5205 0.25C26.5188 0.25 26.5171 0.25 26.5154 0.25C26.5137 0.25 26.512 0.25 26.5103 0.25C26.5085 0.25 26.5068 0.25 26.5051 0.25C26.5034 0.25 26.5017 0.25 26.5 0.25V1.25ZM29.0625 1.25V2.25C33.5725 2.25 37.9553 2.74192 42.2126 3.72439L42.4375 2.75L42.6624 1.77561C38.2531 0.758077 33.7192 0.25 29.0625 0.25V1.25ZM42.4375 2.75L42.2126 3.72439C46.4531 4.70296 50.2263 6.20709 53.5419 8.2288L54.0625 7.375L54.5831 6.5212C51.0654 4.37625 47.0886 2.79704 42.6624 1.77561L42.4375 2.75ZM54.0625 7.375L53.5465 8.23158C56.8703 10.2339 59.48 12.8269 61.3925 16.0145L62.25 15.5L63.1075 14.9855C61.02 11.5064 58.1713 8.68277 54.5785 6.51842L54.0625 7.375ZM62.25 15.5L61.4002 16.0271C63.3261 19.1321 64.3125 22.8998 64.3125 27.375H65.3125H66.3125C66.3125 22.6002 65.2572 18.4512 63.0998 14.9729L62.25 15.5ZM65.3125 27.375H64.3125C64.3125 33.1191 62.3481 38.0387 58.4007 42.1855L59.125 42.875L59.8493 43.5645C64.1519 39.0446 66.3125 33.6309 66.3125 27.375H65.3125ZM59.125 42.875L58.5361 43.6832C61.3173 45.7095 63.5952 48.3994 65.3642 51.7765L66.25 51.3125L67.1358 50.8485C65.2381 47.2256 62.7661 44.2905 59.7139 42.0668L59.125 42.875ZM66.25 51.3125L65.3665 51.7809C67.1112 55.0721 68 58.927 68 63.375H69H70C70 58.6563 69.0554 54.4696 67.1335 50.8441L66.25 51.3125ZM69 63.375H68C68 69.1479 66.761 73.9547 64.3385 77.8466L65.1875 78.375L66.0365 78.9034C68.6973 74.6286 70 69.4355 70 63.375H69ZM65.1875 78.375L64.341 77.8426C61.9038 81.7182 58.5507 84.6759 54.2572 86.7223L54.6875 87.625L55.1178 88.5277C59.7409 86.3241 63.3879 83.1151 66.034 78.9074L65.1875 78.375ZM54.6875 87.625L54.2572 86.7223C49.9469 88.7767 44.9653 89.8778 39.2909 90.0002L39.3125 91L39.3341 91.9998C45.2431 91.8722 50.5114 90.7233 55.1178 88.5277L54.6875 87.625ZM39.3125 91L39.3105 90L7.74802 90.0625L7.75 91.0625L7.75198 92.0625L39.3145 92L39.3125 91ZM7.75 91.0625V90.0625H7.625V91.0625V92.0625H7.75V91.0625ZM7.625 91.0625V90.0625C6.18109 90.0625 4.94973 89.5627 3.88252 88.531L3.1875 89.25L2.49248 89.969C3.92527 91.354 5.65224 92.0625 7.625 92.0625V91.0625ZM3.1875 89.25L3.90649 88.555C2.87485 87.4878 2.375 86.2564 2.375 84.8125H1.375H0.375C0.375 86.7853 1.08348 88.5122 2.46851 89.945L3.1875 89.25ZM1.375 84.8125L2.375 84.8109L2.3125 44.7484L1.3125 44.75L0.312501 44.7516L0.375001 84.8141L1.375 84.8125ZM52.8125 27.75H53.8125C53.8125 23.7051 52.4188 20.4931 49.5497 18.2718L48.9375 19.0625L48.3253 19.8532C50.6228 21.6319 51.8125 24.2116 51.8125 27.75H52.8125ZM48.9375 19.0625L49.5638 18.2829C46.8712 16.12 43.5039 14.6677 39.5025 13.8932L39.3125 14.875L39.1225 15.8568C42.8711 16.5823 45.9204 17.9216 48.3112 19.8421L48.9375 19.0625ZM39.3125 14.875L39.5045 13.8936C35.6078 13.1312 31.6684 12.75 27.6875 12.75V13.75V14.75C31.5399 14.75 35.3506 15.1188 39.1205 15.8564L39.3125 14.875ZM27.6875 13.75V12.75C27.0804 12.75 26.454 12.7717 25.8085 12.8147L25.875 13.8125L25.9415 14.8103C26.546 14.77 27.1279 14.75 27.6875 14.75V13.75ZM25.875 13.8125V12.8125C25.8738 12.8125 25.8726 12.8125 25.8713 12.8125C25.8701 12.8125 25.8689 12.8125 25.8677 12.8125C25.8665 12.8125 25.8652 12.8125 25.864 12.8125C25.8628 12.8125 25.8616 12.8125 25.8604 12.8125C25.8591 12.8125 25.8579 12.8125 25.8567 12.8125C25.8555 12.8125 25.8543 12.8125 25.853 12.8125C25.8518 12.8125 25.8506 12.8125 25.8494 12.8125C25.8482 12.8125 25.8469 12.8125 25.8457 12.8125C25.8445 12.8125 25.8433 12.8125 25.8421 12.8125C25.8408 12.8125 25.8396 12.8125 25.8384 12.8125C25.8372 12.8125 25.836 12.8125 25.8347 12.8125C25.8335 12.8125 25.8323 12.8125 25.8311 12.8125C25.8299 12.8125 25.8287 12.8125 25.8274 12.8125C25.8262 12.8125 25.825 12.8125 25.8238 12.8125C25.8226 12.8125 25.8213 12.8125 25.8201 12.8125C25.8189 12.8125 25.8177 12.8125 25.8165 12.8125C25.8152 12.8125 25.814 12.8125 25.8128 12.8125C25.8116 12.8125 25.8104 12.8125 25.8092 12.8125C25.8079 12.8125 25.8067 12.8125 25.8055 12.8125C25.8043 12.8125 25.8031 12.8125 25.8019 12.8125C25.8006 12.8125 25.7994 12.8125 25.7982 12.8125C25.797 12.8125 25.7958 12.8125 25.7945 12.8125C25.7933 12.8125 25.7921 12.8125 25.7909 12.8125C25.7897 12.8125 25.7885 12.8125 25.7872 12.8125C25.786 12.8125 25.7848 12.8125 25.7836 12.8125C25.7824 12.8125 25.7812 12.8125 25.7799 12.8125C25.7787 12.8125 25.7775 12.8125 25.7763 12.8125C25.7751 12.8125 25.7739 12.8125 25.7726 12.8125C25.7714 12.8125 25.7702 12.8125 25.769 12.8125C25.7678 12.8125 25.7666 12.8125 25.7654 12.8125C25.7641 12.8125 25.7629 12.8125 25.7617 12.8125C25.7605 12.8125 25.7593 12.8125 25.7581 12.8125C25.7568 12.8125 25.7556 12.8125 25.7544 12.8125C25.7532 12.8125 25.752 12.8125 25.7508 12.8125C25.7495 12.8125 25.7483 12.8125 25.7471 12.8125C25.7459 12.8125 25.7447 12.8125 25.7435 12.8125C25.7423 12.8125 25.741 12.8125 25.7398 12.8125C25.7386 12.8125 25.7374 12.8125 25.7362 12.8125C25.735 12.8125 25.7338 12.8125 25.7325 12.8125C25.7313 12.8125 25.7301 12.8125 25.7289 12.8125C25.7277 12.8125 25.7265 12.8125 25.7253 12.8125C25.724 12.8125 25.7228 12.8125 25.7216 12.8125C25.7204 12.8125 25.7192 12.8125 25.718 12.8125C25.7168 12.8125 25.7155 12.8125 25.7143 12.8125C25.7131 12.8125 25.7119 12.8125 25.7107 12.8125C25.7095 12.8125 25.7083 12.8125 25.707 12.8125C25.7058 12.8125 25.7046 12.8125 25.7034 12.8125C25.7022 12.8125 25.701 12.8125 25.6998 12.8125C25.6986 12.8125 25.6973 12.8125 25.6961 12.8125C25.6949 12.8125 25.6937 12.8125 25.6925 12.8125C25.6913 12.8125 25.6901 12.8125 25.6889 12.8125C25.6876 12.8125 25.6864 12.8125 25.6852 12.8125C25.684 12.8125 25.6828 12.8125 25.6816 12.8125C25.6804 12.8125 25.6792 12.8125 25.6779 12.8125C25.6767 12.8125 25.6755 12.8125 25.6743 12.8125C25.6731 12.8125 25.6719 12.8125 25.6707 12.8125C25.6695 12.8125 25.6682 12.8125 25.667 12.8125C25.6658 12.8125 25.6646 12.8125 25.6634 12.8125C25.6622 12.8125 25.661 12.8125 25.6598 12.8125C25.6586 12.8125 25.6573 12.8125 25.6561 12.8125C25.6549 12.8125 25.6537 12.8125 25.6525 12.8125C25.6513 12.8125 25.6501 12.8125 25.6489 12.8125C25.6477 12.8125 25.6464 12.8125 25.6452 12.8125C25.644 12.8125 25.6428 12.8125 25.6416 12.8125C25.6404 12.8125 25.6392 12.8125 25.638 12.8125C25.6368 12.8125 25.6355 12.8125 25.6343 12.8125C25.6331 12.8125 25.6319 12.8125 25.6307 12.8125C25.6295 12.8125 25.6283 12.8125 25.6271 12.8125C25.6259 12.8125 25.6247 12.8125 25.6234 12.8125C25.6222 12.8125 25.621 12.8125 25.6198 12.8125C25.6186 12.8125 25.6174 12.8125 25.6162 12.8125C25.615 12.8125 25.6138 12.8125 25.6126 12.8125C25.6114 12.8125 25.6101 12.8125 25.6089 12.8125C25.6077 12.8125 25.6065 12.8125 25.6053 12.8125C25.6041 12.8125 25.6029 12.8125 25.6017 12.8125C25.6005 12.8125 25.5993 12.8125 25.5981 12.8125C25.5968 12.8125 25.5956 12.8125 25.5944 12.8125C25.5932 12.8125 25.592 12.8125 25.5908 12.8125C25.5896 12.8125 25.5884 12.8125 25.5872 12.8125C25.586 12.8125 25.5848 12.8125 25.5836 12.8125C25.5823 12.8125 25.5811 12.8125 25.5799 12.8125C25.5787 12.8125 25.5775 12.8125 25.5763 12.8125C25.5751 12.8125 25.5739 12.8125 25.5727 12.8125C25.5715 12.8125 25.5703 12.8125 25.5691 12.8125C25.5679 12.8125 25.5667 12.8125 25.5654 12.8125C25.5642 12.8125 25.563 12.8125 25.5618 12.8125C25.5606 12.8125 25.5594 12.8125 25.5582 12.8125C25.557 12.8125 25.5558 12.8125 25.5546 12.8125C25.5534 12.8125 25.5522 12.8125 25.551 12.8125C25.5498 12.8125 25.5485 12.8125 25.5473 12.8125C25.5461 12.8125 25.5449 12.8125 25.5437 12.8125C25.5425 12.8125 25.5413 12.8125 25.5401 12.8125C25.5389 12.8125 25.5377 12.8125 25.5365 12.8125C25.5353 12.8125 25.5341 12.8125 25.5329 12.8125C25.5317 12.8125 25.5305 12.8125 25.5293 12.8125C25.528 12.8125 25.5268 12.8125 25.5256 12.8125C25.5244 12.8125 25.5232 12.8125 25.522 12.8125C25.5208 12.8125 25.5196 12.8125 25.5184 12.8125C25.5172 12.8125 25.516 12.8125 25.5148 12.8125C25.5136 12.8125 25.5124 12.8125 25.5112 12.8125C25.51 12.8125 25.5088 12.8125 25.5076 12.8125C25.5064 12.8125 25.5051 12.8125 25.5039 12.8125C25.5027 12.8125 25.5015 12.8125 25.5003 12.8125C25.4991 12.8125 25.4979 12.8125 25.4967 12.8125C25.4955 12.8125 25.4943 12.8125 25.4931 12.8125C25.4919 12.8125 25.4907 12.8125 25.4895 12.8125C25.4883 12.8125 25.4871 12.8125 25.4859 12.8125C25.4847 12.8125 25.4835 12.8125 25.4823 12.8125C25.4811 12.8125 25.4799 12.8125 25.4787 12.8125C25.4775 12.8125 25.4763 12.8125 25.4751 12.8125C25.4738 12.8125 25.4726 12.8125 25.4714 12.8125C25.4702 12.8125 25.469 12.8125 25.4678 12.8125C25.4666 12.8125 25.4654 12.8125 25.4642 12.8125C25.463 12.8125 25.4618 12.8125 25.4606 12.8125C25.4594 12.8125 25.4582 12.8125 25.457 12.8125C25.4558 12.8125 25.4546 12.8125 25.4534 12.8125C25.4522 12.8125 25.451 12.8125 25.4498 12.8125C25.4486 12.8125 25.4474 12.8125 25.4462 12.8125C25.445 12.8125 25.4438 12.8125 25.4426 12.8125C25.4414 12.8125 25.4402 12.8125 25.439 12.8125C25.4378 12.8125 25.4366 12.8125 25.4354 12.8125C25.4342 12.8125 25.433 12.8125 25.4318 12.8125C25.4306 12.8125 25.4294 12.8125 25.4282 12.8125C25.427 12.8125 25.4258 12.8125 25.4246 12.8125C25.4234 12.8125 25.4222 12.8125 25.421 12.8125C25.4198 12.8125 25.4186 12.8125 25.4174 12.8125C25.4162 12.8125 25.415 12.8125 25.4138 12.8125C25.4126 12.8125 25.4114 12.8125 25.4102 12.8125C25.409 12.8125 25.4078 12.8125 25.4066 12.8125C25.4054 12.8125 25.4042 12.8125 25.403 12.8125C25.4018 12.8125 25.4006 12.8125 25.3994 12.8125C25.3982 12.8125 25.397 12.8125 25.3958 12.8125C25.3946 12.8125 25.3934 12.8125 25.3922 12.8125C25.391 12.8125 25.3898 12.8125 25.3886 12.8125C25.3874 12.8125 25.3862 12.8125 25.385 12.8125C25.3838 12.8125 25.3826 12.8125 25.3814 12.8125C25.3802 12.8125 25.379 12.8125 25.3778 12.8125C25.3766 12.8125 25.3754 12.8125 25.3742 12.8125C25.373 12.8125 25.3718 12.8125 25.3706 12.8125C25.3694 12.8125 25.3682 12.8125 25.367 12.8125C25.3658 12.8125 25.3646 12.8125 25.3634 12.8125C25.3622 12.8125 25.361 12.8125 25.3598 12.8125C25.3586 12.8125 25.3574 12.8125 25.3562 12.8125C25.355 12.8125 25.3538 12.8125 25.3526 12.8125C25.3514 12.8125 25.3502 12.8125 25.349 12.8125C25.3478 12.8125 25.3466 12.8125 25.3454 12.8125C25.3442 12.8125 25.343 12.8125 25.3418 12.8125C25.3406 12.8125 25.3394 12.8125 25.3382 12.8125C25.337 12.8125 25.3358 12.8125 25.3346 12.8125C25.3334 12.8125 25.3322 12.8125 25.331 12.8125C25.3299 12.8125 25.3287 12.8125 25.3275 12.8125C25.3263 12.8125 25.3251 12.8125 25.3239 12.8125C25.3227 12.8125 25.3215 12.8125 25.3203 12.8125C25.3191 12.8125 25.3179 12.8125 25.3167 12.8125C25.3155 12.8125 25.3143 12.8125 25.3131 12.8125C25.3119 12.8125 25.3107 12.8125 25.3095 12.8125C25.3083 12.8125 25.3071 12.8125 25.3059 12.8125C25.3047 12.8125 25.3035 12.8125 25.3023 12.8125C25.3011 12.8125 25.2999 12.8125 25.2988 12.8125C25.2976 12.8125 25.2964 12.8125 25.2952 12.8125C25.294 12.8125 25.2928 12.8125 25.2916 12.8125C25.2904 12.8125 25.2892 12.8125 25.288 12.8125C25.2868 12.8125 25.2856 12.8125 25.2844 12.8125C25.2832 12.8125 25.282 12.8125 25.2808 12.8125C25.2796 12.8125 25.2784 12.8125 25.2772 12.8125C25.276 12.8125 25.2749 12.8125 25.2737 12.8125C25.2725 12.8125 25.2713 12.8125 25.2701 12.8125C25.2689 12.8125 25.2677 12.8125 25.2665 12.8125C25.2653 12.8125 25.2641 12.8125 25.2629 12.8125C25.2617 12.8125 25.2605 12.8125 25.2593 12.8125C25.2581 12.8125 25.2569 12.8125 25.2558 12.8125C25.2546 12.8125 25.2534 12.8125 25.2522 12.8125C25.251 12.8125 25.2498 12.8125 25.2486 12.8125C25.2474 12.8125 25.2462 12.8125 25.245 12.8125C25.2438 12.8125 25.2426 12.8125 25.2414 12.8125C25.2402 12.8125 25.239 12.8125 25.2379 12.8125C25.2367 12.8125 25.2355 12.8125 25.2343 12.8125C25.2331 12.8125 25.2319 12.8125 25.2307 12.8125C25.2295 12.8125 25.2283 12.8125 25.2271 12.8125C25.2259 12.8125 25.2247 12.8125 25.2235 12.8125C25.2224 12.8125 25.2212 12.8125 25.22 12.8125C25.2188 12.8125 25.2176 12.8125 25.2164 12.8125C25.2152 12.8125 25.214 12.8125 25.2128 12.8125C25.2116 12.8125 25.2104 12.8125 25.2092 12.8125C25.2081 12.8125 25.2069 12.8125 25.2057 12.8125C25.2045 12.8125 25.2033 12.8125 25.2021 12.8125C25.2009 12.8125 25.1997 12.8125 25.1985 12.8125C25.1973 12.8125 25.1961 12.8125 25.195 12.8125C25.1938 12.8125 25.1926 12.8125 25.1914 12.8125C25.1902 12.8125 25.189 12.8125 25.1878 12.8125C25.1866 12.8125 25.1854 12.8125 25.1842 12.8125C25.183 12.8125 25.1819 12.8125 25.1807 12.8125C25.1795 12.8125 25.1783 12.8125 25.1771 12.8125C25.1759 12.8125 25.1747 12.8125 25.1735 12.8125C25.1723 12.8125 25.1711 12.8125 25.17 12.8125C25.1688 12.8125 25.1676 12.8125 25.1664 12.8125C25.1652 12.8125 25.164 12.8125 25.1628 12.8125C25.1616 12.8125 25.1604 12.8125 25.1592 12.8125C25.1581 12.8125 25.1569 12.8125 25.1557 12.8125C25.1545 12.8125 25.1533 12.8125 25.1521 12.8125C25.1509 12.8125 25.1497 12.8125 25.1485 12.8125C25.1474 12.8125 25.1462 12.8125 25.145 12.8125C25.1438 12.8125 25.1426 12.8125 25.1414 12.8125C25.1402 12.8125 25.139 12.8125 25.1379 12.8125C25.1367 12.8125 25.1355 12.8125 25.1343 12.8125C25.1331 12.8125 25.1319 12.8125 25.1307 12.8125C25.1295 12.8125 25.1283 12.8125 25.1272 12.8125C25.126 12.8125 25.1248 12.8125 25.1236 12.8125C25.1224 12.8125 25.1212 12.8125 25.12 12.8125C25.1188 12.8125 25.1177 12.8125 25.1165 12.8125C25.1153 12.8125 25.1141 12.8125 25.1129 12.8125C25.1117 12.8125 25.1105 12.8125 25.1093 12.8125C25.1082 12.8125 25.107 12.8125 25.1058 12.8125C25.1046 12.8125 25.1034 12.8125 25.1022 12.8125C25.101 12.8125 25.0999 12.8125 25.0987 12.8125C25.0975 12.8125 25.0963 12.8125 25.0951 12.8125C25.0939 12.8125 25.0927 12.8125 25.0915 12.8125C25.0904 12.8125 25.0892 12.8125 25.088 12.8125C25.0868 12.8125 25.0856 12.8125 25.0844 12.8125C25.0832 12.8125 25.0821 12.8125 25.0809 12.8125C25.0797 12.8125 25.0785 12.8125 25.0773 12.8125C25.0761 12.8125 25.0749 12.8125 25.0738 12.8125C25.0726 12.8125 25.0714 12.8125 25.0702 12.8125C25.069 12.8125 25.0678 12.8125 25.0667 12.8125C25.0655 12.8125 25.0643 12.8125 25.0631 12.8125C25.0619 12.8125 25.0607 12.8125 25.0595 12.8125C25.0584 12.8125 25.0572 12.8125 25.056 12.8125C25.0548 12.8125 25.0536 12.8125 25.0524 12.8125C25.0512 12.8125 25.0501 12.8125 25.0489 12.8125C25.0477 12.8125 25.0465 12.8125 25.0453 12.8125C25.0441 12.8125 25.043 12.8125 25.0418 12.8125C25.0406 12.8125 25.0394 12.8125 25.0382 12.8125C25.037 12.8125 25.0359 12.8125 25.0347 12.8125C25.0335 12.8125 25.0323 12.8125 25.0311 12.8125C25.0299 12.8125 25.0288 12.8125 25.0276 12.8125C25.0264 12.8125 25.0252 12.8125 25.024 12.8125C25.0228 12.8125 25.0217 12.8125 25.0205 12.8125C25.0193 12.8125 25.0181 12.8125 25.0169 12.8125C25.0157 12.8125 25.0146 12.8125 25.0134 12.8125C25.0122 12.8125 25.011 12.8125 25.0098 12.8125C25.0086 12.8125 25.0075 12.8125 25.0063 12.8125C25.0051 12.8125 25.0039 12.8125 25.0027 12.8125C25.0016 12.8125 25.0004 12.8125 24.9992 12.8125C24.998 12.8125 24.9968 12.8125 24.9956 12.8125C24.9945 12.8125 24.9933 12.8125 24.9921 12.8125C24.9909 12.8125 24.9897 12.8125 24.9885 12.8125C24.9874 12.8125 24.9862 12.8125 24.985 12.8125C24.9838 12.8125 24.9826 12.8125 24.9815 12.8125C24.9803 12.8125 24.9791 12.8125 24.9779 12.8125C24.9767 12.8125 24.9756 12.8125 24.9744 12.8125C24.9732 12.8125 24.972 12.8125 24.9708 12.8125C24.9697 12.8125 24.9685 12.8125 24.9673 12.8125C24.9661 12.8125 24.9649 12.8125 24.9637 12.8125C24.9626 12.8125 24.9614 12.8125 24.9602 12.8125C24.959 12.8125 24.9578 12.8125 24.9567 12.8125C24.9555 12.8125 24.9543 12.8125 24.9531 12.8125C24.9519 12.8125 24.9508 12.8125 24.9496 12.8125C24.9484 12.8125 24.9472 12.8125 24.946 12.8125C24.9449 12.8125 24.9437 12.8125 24.9425 12.8125C24.9413 12.8125 24.9401 12.8125 24.939 12.8125C24.9378 12.8125 24.9366 12.8125 24.9354 12.8125C24.9343 12.8125 24.9331 12.8125 24.9319 12.8125C24.9307 12.8125 24.9295 12.8125 24.9284 12.8125C24.9272 12.8125 24.926 12.8125 24.9248 12.8125C24.9236 12.8125 24.9225 12.8125 24.9213 12.8125C24.9201 12.8125 24.9189 12.8125 24.9177 12.8125C24.9166 12.8125 24.9154 12.8125 24.9142 12.8125C24.913 12.8125 24.9119 12.8125 24.9107 12.8125C24.9095 12.8125 24.9083 12.8125 24.9071 12.8125C24.906 12.8125 24.9048 12.8125 24.9036 12.8125C24.9024 12.8125 24.9013 12.8125 24.9001 12.8125C24.8989 12.8125 24.8977 12.8125 24.8965 12.8125C24.8954 12.8125 24.8942 12.8125 24.893 12.8125C24.8918 12.8125 24.8907 12.8125 24.8895 12.8125C24.8883 12.8125 24.8871 12.8125 24.886 12.8125C24.8848 12.8125 24.8836 12.8125 24.8824 12.8125C24.8812 12.8125 24.8801 12.8125 24.8789 12.8125C24.8777 12.8125 24.8765 12.8125 24.8754 12.8125C24.8742 12.8125 24.873 12.8125 24.8718 12.8125C24.8707 12.8125 24.8695 12.8125 24.8683 12.8125C24.8671 12.8125 24.8659 12.8125 24.8648 12.8125C24.8636 12.8125 24.8624 12.8125 24.8612 12.8125C24.8601 12.8125 24.8589 12.8125 24.8577 12.8125C24.8565 12.8125 24.8554 12.8125 24.8542 12.8125C24.853 12.8125 24.8518 12.8125 24.8507 12.8125C24.8495 12.8125 24.8483 12.8125 24.8471 12.8125C24.846 12.8125 24.8448 12.8125 24.8436 12.8125C24.8424 12.8125 24.8413 12.8125 24.8401 12.8125C24.8389 12.8125 24.8377 12.8125 24.8366 12.8125C24.8354 12.8125 24.8342 12.8125 24.833 12.8125C24.8319 12.8125 24.8307 12.8125 24.8295 12.8125C24.8283 12.8125 24.8272 12.8125 24.826 12.8125C24.8248 12.8125 24.8236 12.8125 24.8225 12.8125C24.8213 12.8125 24.8201 12.8125 24.8189 12.8125C24.8178 12.8125 24.8166 12.8125 24.8154 12.8125C24.8143 12.8125 24.8131 12.8125 24.8119 12.8125C24.8107 12.8125 24.8096 12.8125 24.8084 12.8125C24.8072 12.8125 24.806 12.8125 24.8049 12.8125C24.8037 12.8125 24.8025 12.8125 24.8013 12.8125C24.8002 12.8125 24.799 12.8125 24.7978 12.8125C24.7967 12.8125 24.7955 12.8125 24.7943 12.8125C24.7931 12.8125 24.792 12.8125 24.7908 12.8125C24.7896 12.8125 24.7884 12.8125 24.7873 12.8125C24.7861 12.8125 24.7849 12.8125 24.7838 12.8125C24.7826 12.8125 24.7814 12.8125 24.7802 12.8125C24.7791 12.8125 24.7779 12.8125 24.7767 12.8125C24.7755 12.8125 24.7744 12.8125 24.7732 12.8125C24.772 12.8125 24.7709 12.8125 24.7697 12.8125C24.7685 12.8125 24.7673 12.8125 24.7662 12.8125C24.765 12.8125 24.7638 12.8125 24.7627 12.8125C24.7615 12.8125 24.7603 12.8125 24.7591 12.8125C24.758 12.8125 24.7568 12.8125 24.7556 12.8125C24.7545 12.8125 24.7533 12.8125 24.7521 12.8125C24.7509 12.8125 24.7498 12.8125 24.7486 12.8125C24.7474 12.8125 24.7463 12.8125 24.7451 12.8125C24.7439 12.8125 24.7428 12.8125 24.7416 12.8125C24.7404 12.8125 24.7392 12.8125 24.7381 12.8125C24.7369 12.8125 24.7357 12.8125 24.7346 12.8125C24.7334 12.8125 24.7322 12.8125 24.731 12.8125C24.7299 12.8125 24.7287 12.8125 24.7275 12.8125C24.7264 12.8125 24.7252 12.8125 24.724 12.8125C24.7229 12.8125 24.7217 12.8125 24.7205 12.8125C24.7194 12.8125 24.7182 12.8125 24.717 12.8125C24.7158 12.8125 24.7147 12.8125 24.7135 12.8125C24.7123 12.8125 24.7112 12.8125 24.71 12.8125C24.7088 12.8125 24.7077 12.8125 24.7065 12.8125C24.7053 12.8125 24.7042 12.8125 24.703 12.8125C24.7018 12.8125 24.7006 12.8125 24.6995 12.8125C24.6983 12.8125 24.6971 12.8125 24.696 12.8125C24.6948 12.8125 24.6936 12.8125 24.6925 12.8125C24.6913 12.8125 24.6901 12.8125 24.689 12.8125C24.6878 12.8125 24.6866 12.8125 24.6855 12.8125C24.6843 12.8125 24.6831 12.8125 24.682 12.8125C24.6808 12.8125 24.6796 12.8125 24.6785 12.8125C24.6773 12.8125 24.6761 12.8125 24.6749 12.8125C24.6738 12.8125 24.6726 12.8125 24.6714 12.8125C24.6703 12.8125 24.6691 12.8125 24.6679 12.8125C24.6668 12.8125 24.6656 12.8125 24.6644 12.8125C24.6633 12.8125 24.6621 12.8125 24.6609 12.8125C24.6598 12.8125 24.6586 12.8125 24.6574 12.8125C24.6563 12.8125 24.6551 12.8125 24.6539 12.8125C24.6528 12.8125 24.6516 12.8125 24.6504 12.8125C24.6493 12.8125 24.6481 12.8125 24.6469 12.8125C24.6458 12.8125 24.6446 12.8125 24.6434 12.8125C24.6423 12.8125 24.6411 12.8125 24.64 12.8125C24.6388 12.8125 24.6376 12.8125 24.6365 12.8125C24.6353 12.8125 24.6341 12.8125 24.633 12.8125C24.6318 12.8125 24.6306 12.8125 24.6295 12.8125C24.6283 12.8125 24.6271 12.8125 24.626 12.8125C24.6248 12.8125 24.6236 12.8125 24.6225 12.8125C24.6213 12.8125 24.6201 12.8125 24.619 12.8125C24.6178 12.8125 24.6166 12.8125 24.6155 12.8125C24.6143 12.8125 24.6131 12.8125 24.612 12.8125C24.6108 12.8125 24.6097 12.8125 24.6085 12.8125C24.6073 12.8125 24.6062 12.8125 24.605 12.8125C24.6038 12.8125 24.6027 12.8125 24.6015 12.8125C24.6003 12.8125 24.5992 12.8125 24.598 12.8125C24.5968 12.8125 24.5957 12.8125 24.5945 12.8125C24.5934 12.8125 24.5922 12.8125 24.591 12.8125C24.5899 12.8125 24.5887 12.8125 24.5875 12.8125C24.5864 12.8125 24.5852 12.8125 24.584 12.8125C24.5829 12.8125 24.5817 12.8125 24.5806 12.8125C24.5794 12.8125 24.5782 12.8125 24.5771 12.8125C24.5759 12.8125 24.5747 12.8125 24.5736 12.8125C24.5724 12.8125 24.5713 12.8125 24.5701 12.8125C24.5689 12.8125 24.5678 12.8125 24.5666 12.8125C24.5654 12.8125 24.5643 12.8125 24.5631 12.8125C24.562 12.8125 24.5608 12.8125 24.5596 12.8125C24.5585 12.8125 24.5573 12.8125 24.5561 12.8125C24.555 12.8125 24.5538 12.8125 24.5527 12.8125C24.5515 12.8125 24.5503 12.8125 24.5492 12.8125C24.548 12.8125 24.5469 12.8125 24.5457 12.8125C24.5445 12.8125 24.5434 12.8125 24.5422 12.8125C24.541 12.8125 24.5399 12.8125 24.5387 12.8125C24.5376 12.8125 24.5364 12.8125 24.5352 12.8125C24.5341 12.8125 24.5329 12.8125 24.5318 12.8125C24.5306 12.8125 24.5294 12.8125 24.5283 12.8125C24.5271 12.8125 24.5259 12.8125 24.5248 12.8125C24.5236 12.8125 24.5225 12.8125 24.5213 12.8125C24.5201 12.8125 24.519 12.8125 24.5178 12.8125C24.5167 12.8125 24.5155 12.8125 24.5143 12.8125C24.5132 12.8125 24.512 12.8125 24.5109 12.8125C24.5097 12.8125 24.5085 12.8125 24.5074 12.8125C24.5062 12.8125 24.5051 12.8125 24.5039 12.8125C24.5027 12.8125 24.5016 12.8125 24.5004 12.8125C24.4993 12.8125 24.4981 12.8125 24.4969 12.8125C24.4958 12.8125 24.4946 12.8125 24.4935 12.8125C24.4923 12.8125 24.4912 12.8125 24.49 12.8125C24.4888 12.8125 24.4877 12.8125 24.4865 12.8125C24.4854 12.8125 24.4842 12.8125 24.483 12.8125C24.4819 12.8125 24.4807 12.8125 24.4796 12.8125C24.4784 12.8125 24.4772 12.8125 24.4761 12.8125C24.4749 12.8125 24.4738 12.8125 24.4726 12.8125C24.4715 12.8125 24.4703 12.8125 24.4691 12.8125C24.468 12.8125 24.4668 12.8125 24.4657 12.8125C24.4645 12.8125 24.4634 12.8125 24.4622 12.8125C24.461 12.8125 24.4599 12.8125 24.4587 12.8125C24.4576 12.8125 24.4564 12.8125 24.4552 12.8125C24.4541 12.8125 24.4529 12.8125 24.4518 12.8125C24.4506 12.8125 24.4495 12.8125 24.4483 12.8125C24.4471 12.8125 24.446 12.8125 24.4448 12.8125C24.4437 12.8125 24.4425 12.8125 24.4414 12.8125C24.4402 12.8125 24.439 12.8125 24.4379 12.8125C24.4367 12.8125 24.4356 12.8125 24.4344 12.8125C24.4333 12.8125 24.4321 12.8125 24.431 12.8125C24.4298 12.8125 24.4286 12.8125 24.4275 12.8125C24.4263 12.8125 24.4252 12.8125 24.424 12.8125C24.4229 12.8125 24.4217 12.8125 24.4205 12.8125C24.4194 12.8125 24.4182 12.8125 24.4171 12.8125C24.4159 12.8125 24.4148 12.8125 24.4136 12.8125C24.4125 12.8125 24.4113 12.8125 24.4101 12.8125C24.409 12.8125 24.4078 12.8125 24.4067 12.8125C24.4055 12.8125 24.4044 12.8125 24.4032 12.8125C24.4021 12.8125 24.4009 12.8125 24.3998 12.8125C24.3986 12.8125 24.3974 12.8125 24.3963 12.8125C24.3951 12.8125 24.394 12.8125 24.3928 12.8125C24.3917 12.8125 24.3905 12.8125 24.3894 12.8125C24.3882 12.8125 24.387 12.8125 24.3859 12.8125C24.3847 12.8125 24.3836 12.8125 24.3824 12.8125C24.3813 12.8125 24.3801 12.8125 24.379 12.8125C24.3778 12.8125 24.3767 12.8125 24.3755 12.8125C24.3744 12.8125 24.3732 12.8125 24.372 12.8125C24.3709 12.8125 24.3697 12.8125 24.3686 12.8125C24.3674 12.8125 24.3663 12.8125 24.3651 12.8125C24.364 12.8125 24.3628 12.8125 24.3617 12.8125C24.3605 12.8125 24.3594 12.8125 24.3582 12.8125C24.3571 12.8125 24.3559 12.8125 24.3547 12.8125C24.3536 12.8125 24.3524 12.8125 24.3513 12.8125C24.3501 12.8125 24.349 12.8125 24.3478 12.8125C24.3467 12.8125 24.3455 12.8125 24.3444 12.8125C24.3432 12.8125 24.3421 12.8125 24.3409 12.8125C24.3398 12.8125 24.3386 12.8125 24.3375 12.8125C24.3363 12.8125 24.3352 12.8125 24.334 12.8125C24.3329 12.8125 24.3317 12.8125 24.3306 12.8125C24.3294 12.8125 24.3282 12.8125 24.3271 12.8125C24.3259 12.8125 24.3248 12.8125 24.3236 12.8125C24.3225 12.8125 24.3213 12.8125 24.3202 12.8125C24.319 12.8125 24.3179 12.8125 24.3167 12.8125C24.3156 12.8125 24.3144 12.8125 24.3133 12.8125C24.3121 12.8125 24.311 12.8125 24.3098 12.8125C24.3087 12.8125 24.3075 12.8125 24.3064 12.8125C24.3052 12.8125 24.3041 12.8125 24.3029 12.8125C24.3018 12.8125 24.3006 12.8125 24.2995 12.8125C24.2983 12.8125 24.2972 12.8125 24.296 12.8125C24.2949 12.8125 24.2937 12.8125 24.2926 12.8125C24.2914 12.8125 24.2903 12.8125 24.2891 12.8125C24.288 12.8125 24.2868 12.8125 24.2857 12.8125C24.2845 12.8125 24.2834 12.8125 24.2822 12.8125C24.2811 12.8125 24.2799 12.8125 24.2788 12.8125C24.2776 12.8125 24.2765 12.8125 24.2753 12.8125C24.2742 12.8125 24.273 12.8125 24.2719 12.8125C24.2707 12.8125 24.2696 12.8125 24.2684 12.8125C24.2673 12.8125 24.2661 12.8125 24.265 12.8125C24.2638 12.8125 24.2627 12.8125 24.2615 12.8125C24.2604 12.8125 24.2592 12.8125 24.2581 12.8125C24.257 12.8125 24.2558 12.8125 24.2547 12.8125C24.2535 12.8125 24.2524 12.8125 24.2512 12.8125C24.2501 12.8125 24.2489 12.8125 24.2478 12.8125C24.2466 12.8125 24.2455 12.8125 24.2443 12.8125C24.2432 12.8125 24.242 12.8125 24.2409 12.8125C24.2397 12.8125 24.2386 12.8125 24.2374 12.8125C24.2363 12.8125 24.2351 12.8125 24.234 12.8125C24.2328 12.8125 24.2317 12.8125 24.2306 12.8125C24.2294 12.8125 24.2283 12.8125 24.2271 12.8125C24.226 12.8125 24.2248 12.8125 24.2237 12.8125C24.2225 12.8125 24.2214 12.8125 24.2202 12.8125C24.2191 12.8125 24.2179 12.8125 24.2168 12.8125C24.2156 12.8125 24.2145 12.8125 24.2134 12.8125C24.2122 12.8125 24.2111 12.8125 24.2099 12.8125C24.2088 12.8125 24.2076 12.8125 24.2065 12.8125C24.2053 12.8125 24.2042 12.8125 24.203 12.8125C24.2019 12.8125 24.2007 12.8125 24.1996 12.8125C24.1985 12.8125 24.1973 12.8125 24.1962 12.8125C24.195 12.8125 24.1939 12.8125 24.1927 12.8125C24.1916 12.8125 24.1904 12.8125 24.1893 12.8125C24.1881 12.8125 24.187 12.8125 24.1859 12.8125C24.1847 12.8125 24.1836 12.8125 24.1824 12.8125C24.1813 12.8125 24.1801 12.8125 24.179 12.8125C24.1778 12.8125 24.1767 12.8125 24.1756 12.8125C24.1744 12.8125 24.1733 12.8125 24.1721 12.8125C24.171 12.8125 24.1698 12.8125 24.1687 12.8125C24.1675 12.8125 24.1664 12.8125 24.1653 12.8125C24.1641 12.8125 24.163 12.8125 24.1618 12.8125C24.1607 12.8125 24.1595 12.8125 24.1584 12.8125C24.1572 12.8125 24.1561 12.8125 24.155 12.8125C24.1538 12.8125 24.1527 12.8125 24.1515 12.8125C24.1504 12.8125 24.1492 12.8125 24.1481 12.8125C24.147 12.8125 24.1458 12.8125 24.1447 12.8125C24.1435 12.8125 24.1424 12.8125 24.1412 12.8125C24.1401 12.8125 24.139 12.8125 24.1378 12.8125C24.1367 12.8125 24.1355 12.8125 24.1344 12.8125C24.1332 12.8125 24.1321 12.8125 24.131 12.8125C24.1298 12.8125 24.1287 12.8125 24.1275 12.8125C24.1264 12.8125 24.1252 12.8125 24.1241 12.8125C24.123 12.8125 24.1218 12.8125 24.1207 12.8125C24.1195 12.8125 24.1184 12.8125 24.1172 12.8125C24.1161 12.8125 24.115 12.8125 24.1138 12.8125C24.1127 12.8125 24.1115 12.8125 24.1104 12.8125C24.1093 12.8125 24.1081 12.8125 24.107 12.8125C24.1058 12.8125 24.1047 12.8125 24.1035 12.8125C24.1024 12.8125 24.1013 12.8125 24.1001 12.8125C24.099 12.8125 24.0978 12.8125 24.0967 12.8125C24.0956 12.8125 24.0944 12.8125 24.0933 12.8125C24.0921 12.8125 24.091 12.8125 24.0899 12.8125C24.0887 12.8125 24.0876 12.8125 24.0864 12.8125C24.0853 12.8125 24.0842 12.8125 24.083 12.8125C24.0819 12.8125 24.0807 12.8125 24.0796 12.8125C24.0785 12.8125 24.0773 12.8125 24.0762 12.8125C24.075 12.8125 24.0739 12.8125 24.0728 12.8125C24.0716 12.8125 24.0705 12.8125 24.0693 12.8125C24.0682 12.8125 24.0671 12.8125 24.0659 12.8125C24.0648 12.8125 24.0636 12.8125 24.0625 12.8125V13.8125V14.8125C24.0636 14.8125 24.0648 14.8125 24.0659 14.8125C24.0671 14.8125 24.0682 14.8125 24.0693 14.8125C24.0705 14.8125 24.0716 14.8125 24.0728 14.8125C24.0739 14.8125 24.075 14.8125 24.0762 14.8125C24.0773 14.8125 24.0785 14.8125 24.0796 14.8125C24.0807 14.8125 24.0819 14.8125 24.083 14.8125C24.0842 14.8125 24.0853 14.8125 24.0864 14.8125C24.0876 14.8125 24.0887 14.8125 24.0899 14.8125C24.091 14.8125 24.0921 14.8125 24.0933 14.8125C24.0944 14.8125 24.0956 14.8125 24.0967 14.8125C24.0978 14.8125 24.099 14.8125 24.1001 14.8125C24.1013 14.8125 24.1024 14.8125 24.1035 14.8125C24.1047 14.8125 24.1058 14.8125 24.107 14.8125C24.1081 14.8125 24.1093 14.8125 24.1104 14.8125C24.1115 14.8125 24.1127 14.8125 24.1138 14.8125C24.115 14.8125 24.1161 14.8125 24.1172 14.8125C24.1184 14.8125 24.1195 14.8125 24.1207 14.8125C24.1218 14.8125 24.123 14.8125 24.1241 14.8125C24.1252 14.8125 24.1264 14.8125 24.1275 14.8125C24.1287 14.8125 24.1298 14.8125 24.131 14.8125C24.1321 14.8125 24.1332 14.8125 24.1344 14.8125C24.1355 14.8125 24.1367 14.8125 24.1378 14.8125C24.139 14.8125 24.1401 14.8125 24.1412 14.8125C24.1424 14.8125 24.1435 14.8125 24.1447 14.8125C24.1458 14.8125 24.147 14.8125 24.1481 14.8125C24.1492 14.8125 24.1504 14.8125 24.1515 14.8125C24.1527 14.8125 24.1538 14.8125 24.155 14.8125C24.1561 14.8125 24.1572 14.8125 24.1584 14.8125C24.1595 14.8125 24.1607 14.8125 24.1618 14.8125C24.163 14.8125 24.1641 14.8125 24.1653 14.8125C24.1664 14.8125 24.1675 14.8125 24.1687 14.8125C24.1698 14.8125 24.171 14.8125 24.1721 14.8125C24.1733 14.8125 24.1744 14.8125 24.1756 14.8125C24.1767 14.8125 24.1778 14.8125 24.179 14.8125C24.1801 14.8125 24.1813 14.8125 24.1824 14.8125C24.1836 14.8125 24.1847 14.8125 24.1859 14.8125C24.187 14.8125 24.1881 14.8125 24.1893 14.8125C24.1904 14.8125 24.1916 14.8125 24.1927 14.8125C24.1939 14.8125 24.195 14.8125 24.1962 14.8125C24.1973 14.8125 24.1985 14.8125 24.1996 14.8125C24.2007 14.8125 24.2019 14.8125 24.203 14.8125C24.2042 14.8125 24.2053 14.8125 24.2065 14.8125C24.2076 14.8125 24.2088 14.8125 24.2099 14.8125C24.2111 14.8125 24.2122 14.8125 24.2134 14.8125C24.2145 14.8125 24.2156 14.8125 24.2168 14.8125C24.2179 14.8125 24.2191 14.8125 24.2202 14.8125C24.2214 14.8125 24.2225 14.8125 24.2237 14.8125C24.2248 14.8125 24.226 14.8125 24.2271 14.8125C24.2283 14.8125 24.2294 14.8125 24.2306 14.8125C24.2317 14.8125 24.2328 14.8125 24.234 14.8125C24.2351 14.8125 24.2363 14.8125 24.2374 14.8125C24.2386 14.8125 24.2397 14.8125 24.2409 14.8125C24.242 14.8125 24.2432 14.8125 24.2443 14.8125C24.2455 14.8125 24.2466 14.8125 24.2478 14.8125C24.2489 14.8125 24.2501 14.8125 24.2512 14.8125C24.2524 14.8125 24.2535 14.8125 24.2547 14.8125C24.2558 14.8125 24.257 14.8125 24.2581 14.8125C24.2592 14.8125 24.2604 14.8125 24.2615 14.8125C24.2627 14.8125 24.2638 14.8125 24.265 14.8125C24.2661 14.8125 24.2673 14.8125 24.2684 14.8125C24.2696 14.8125 24.2707 14.8125 24.2719 14.8125C24.273 14.8125 24.2742 14.8125 24.2753 14.8125C24.2765 14.8125 24.2776 14.8125 24.2788 14.8125C24.2799 14.8125 24.2811 14.8125 24.2822 14.8125C24.2834 14.8125 24.2845 14.8125 24.2857 14.8125C24.2868 14.8125 24.288 14.8125 24.2891 14.8125C24.2903 14.8125 24.2914 14.8125 24.2926 14.8125C24.2937 14.8125 24.2949 14.8125 24.296 14.8125C24.2972 14.8125 24.2983 14.8125 24.2995 14.8125C24.3006 14.8125 24.3018 14.8125 24.3029 14.8125C24.3041 14.8125 24.3052 14.8125 24.3064 14.8125C24.3075 14.8125 24.3087 14.8125 24.3098 14.8125C24.311 14.8125 24.3121 14.8125 24.3133 14.8125C24.3144 14.8125 24.3156 14.8125 24.3167 14.8125C24.3179 14.8125 24.319 14.8125 24.3202 14.8125C24.3213 14.8125 24.3225 14.8125 24.3236 14.8125C24.3248 14.8125 24.3259 14.8125 24.3271 14.8125C24.3282 14.8125 24.3294 14.8125 24.3306 14.8125C24.3317 14.8125 24.3329 14.8125 24.334 14.8125C24.3352 14.8125 24.3363 14.8125 24.3375 14.8125C24.3386 14.8125 24.3398 14.8125 24.3409 14.8125C24.3421 14.8125 24.3432 14.8125 24.3444 14.8125C24.3455 14.8125 24.3467 14.8125 24.3478 14.8125C24.349 14.8125 24.3501 14.8125 24.3513 14.8125C24.3524 14.8125 24.3536 14.8125 24.3547 14.8125C24.3559 14.8125 24.3571 14.8125 24.3582 14.8125C24.3594 14.8125 24.3605 14.8125 24.3617 14.8125C24.3628 14.8125 24.364 14.8125 24.3651 14.8125C24.3663 14.8125 24.3674 14.8125 24.3686 14.8125C24.3697 14.8125 24.3709 14.8125 24.372 14.8125C24.3732 14.8125 24.3744 14.8125 24.3755 14.8125C24.3767 14.8125 24.3778 14.8125 24.379 14.8125C24.3801 14.8125 24.3813 14.8125 24.3824 14.8125C24.3836 14.8125 24.3847 14.8125 24.3859 14.8125C24.387 14.8125 24.3882 14.8125 24.3894 14.8125C24.3905 14.8125 24.3917 14.8125 24.3928 14.8125C24.394 14.8125 24.3951 14.8125 24.3963 14.8125C24.3974 14.8125 24.3986 14.8125 24.3998 14.8125C24.4009 14.8125 24.4021 14.8125 24.4032 14.8125C24.4044 14.8125 24.4055 14.8125 24.4067 14.8125C24.4078 14.8125 24.409 14.8125 24.4101 14.8125C24.4113 14.8125 24.4125 14.8125 24.4136 14.8125C24.4148 14.8125 24.4159 14.8125 24.4171 14.8125C24.4182 14.8125 24.4194 14.8125 24.4205 14.8125C24.4217 14.8125 24.4229 14.8125 24.424 14.8125C24.4252 14.8125 24.4263 14.8125 24.4275 14.8125C24.4286 14.8125 24.4298 14.8125 24.431 14.8125C24.4321 14.8125 24.4333 14.8125 24.4344 14.8125C24.4356 14.8125 24.4367 14.8125 24.4379 14.8125C24.439 14.8125 24.4402 14.8125 24.4414 14.8125C24.4425 14.8125 24.4437 14.8125 24.4448 14.8125C24.446 14.8125 24.4471 14.8125 24.4483 14.8125C24.4495 14.8125 24.4506 14.8125 24.4518 14.8125C24.4529 14.8125 24.4541 14.8125 24.4552 14.8125C24.4564 14.8125 24.4576 14.8125 24.4587 14.8125C24.4599 14.8125 24.461 14.8125 24.4622 14.8125C24.4634 14.8125 24.4645 14.8125 24.4657 14.8125C24.4668 14.8125 24.468 14.8125 24.4691 14.8125C24.4703 14.8125 24.4715 14.8125 24.4726 14.8125C24.4738 14.8125 24.4749 14.8125 24.4761 14.8125C24.4772 14.8125 24.4784 14.8125 24.4796 14.8125C24.4807 14.8125 24.4819 14.8125 24.483 14.8125C24.4842 14.8125 24.4854 14.8125 24.4865 14.8125C24.4877 14.8125 24.4888 14.8125 24.49 14.8125C24.4912 14.8125 24.4923 14.8125 24.4935 14.8125C24.4946 14.8125 24.4958 14.8125 24.4969 14.8125C24.4981 14.8125 24.4993 14.8125 24.5004 14.8125C24.5016 14.8125 24.5027 14.8125 24.5039 14.8125C24.5051 14.8125 24.5062 14.8125 24.5074 14.8125C24.5085 14.8125 24.5097 14.8125 24.5109 14.8125C24.512 14.8125 24.5132 14.8125 24.5143 14.8125C24.5155 14.8125 24.5167 14.8125 24.5178 14.8125C24.519 14.8125 24.5201 14.8125 24.5213 14.8125C24.5225 14.8125 24.5236 14.8125 24.5248 14.8125C24.5259 14.8125 24.5271 14.8125 24.5283 14.8125C24.5294 14.8125 24.5306 14.8125 24.5318 14.8125C24.5329 14.8125 24.5341 14.8125 24.5352 14.8125C24.5364 14.8125 24.5376 14.8125 24.5387 14.8125C24.5399 14.8125 24.541 14.8125 24.5422 14.8125C24.5434 14.8125 24.5445 14.8125 24.5457 14.8125C24.5469 14.8125 24.548 14.8125 24.5492 14.8125C24.5503 14.8125 24.5515 14.8125 24.5527 14.8125C24.5538 14.8125 24.555 14.8125 24.5561 14.8125C24.5573 14.8125 24.5585 14.8125 24.5596 14.8125C24.5608 14.8125 24.562 14.8125 24.5631 14.8125C24.5643 14.8125 24.5654 14.8125 24.5666 14.8125C24.5678 14.8125 24.5689 14.8125 24.5701 14.8125C24.5713 14.8125 24.5724 14.8125 24.5736 14.8125C24.5747 14.8125 24.5759 14.8125 24.5771 14.8125C24.5782 14.8125 24.5794 14.8125 24.5806 14.8125C24.5817 14.8125 24.5829 14.8125 24.584 14.8125C24.5852 14.8125 24.5864 14.8125 24.5875 14.8125C24.5887 14.8125 24.5899 14.8125 24.591 14.8125C24.5922 14.8125 24.5934 14.8125 24.5945 14.8125C24.5957 14.8125 24.5968 14.8125 24.598 14.8125C24.5992 14.8125 24.6003 14.8125 24.6015 14.8125C24.6027 14.8125 24.6038 14.8125 24.605 14.8125C24.6062 14.8125 24.6073 14.8125 24.6085 14.8125C24.6097 14.8125 24.6108 14.8125 24.612 14.8125C24.6131 14.8125 24.6143 14.8125 24.6155 14.8125C24.6166 14.8125 24.6178 14.8125 24.619 14.8125C24.6201 14.8125 24.6213 14.8125 24.6225 14.8125C24.6236 14.8125 24.6248 14.8125 24.626 14.8125C24.6271 14.8125 24.6283 14.8125 24.6295 14.8125C24.6306 14.8125 24.6318 14.8125 24.633 14.8125C24.6341 14.8125 24.6353 14.8125 24.6365 14.8125C24.6376 14.8125 24.6388 14.8125 24.64 14.8125C24.6411 14.8125 24.6423 14.8125 24.6434 14.8125C24.6446 14.8125 24.6458 14.8125 24.6469 14.8125C24.6481 14.8125 24.6493 14.8125 24.6504 14.8125C24.6516 14.8125 24.6528 14.8125 24.6539 14.8125C24.6551 14.8125 24.6563 14.8125 24.6574 14.8125C24.6586 14.8125 24.6598 14.8125 24.6609 14.8125C24.6621 14.8125 24.6633 14.8125 24.6644 14.8125C24.6656 14.8125 24.6668 14.8125 24.6679 14.8125C24.6691 14.8125 24.6703 14.8125 24.6714 14.8125C24.6726 14.8125 24.6738 14.8125 24.6749 14.8125C24.6761 14.8125 24.6773 14.8125 24.6785 14.8125C24.6796 14.8125 24.6808 14.8125 24.682 14.8125C24.6831 14.8125 24.6843 14.8125 24.6855 14.8125C24.6866 14.8125 24.6878 14.8125 24.689 14.8125C24.6901 14.8125 24.6913 14.8125 24.6925 14.8125C24.6936 14.8125 24.6948 14.8125 24.696 14.8125C24.6971 14.8125 24.6983 14.8125 24.6995 14.8125C24.7006 14.8125 24.7018 14.8125 24.703 14.8125C24.7042 14.8125 24.7053 14.8125 24.7065 14.8125C24.7077 14.8125 24.7088 14.8125 24.71 14.8125C24.7112 14.8125 24.7123 14.8125 24.7135 14.8125C24.7147 14.8125 24.7158 14.8125 24.717 14.8125C24.7182 14.8125 24.7194 14.8125 24.7205 14.8125C24.7217 14.8125 24.7229 14.8125 24.724 14.8125C24.7252 14.8125 24.7264 14.8125 24.7275 14.8125C24.7287 14.8125 24.7299 14.8125 24.731 14.8125C24.7322 14.8125 24.7334 14.8125 24.7346 14.8125C24.7357 14.8125 24.7369 14.8125 24.7381 14.8125C24.7392 14.8125 24.7404 14.8125 24.7416 14.8125C24.7428 14.8125 24.7439 14.8125 24.7451 14.8125C24.7463 14.8125 24.7474 14.8125 24.7486 14.8125C24.7498 14.8125 24.7509 14.8125 24.7521 14.8125C24.7533 14.8125 24.7545 14.8125 24.7556 14.8125C24.7568 14.8125 24.758 14.8125 24.7591 14.8125C24.7603 14.8125 24.7615 14.8125 24.7627 14.8125C24.7638 14.8125 24.765 14.8125 24.7662 14.8125C24.7673 14.8125 24.7685 14.8125 24.7697 14.8125C24.7709 14.8125 24.772 14.8125 24.7732 14.8125C24.7744 14.8125 24.7755 14.8125 24.7767 14.8125C24.7779 14.8125 24.7791 14.8125 24.7802 14.8125C24.7814 14.8125 24.7826 14.8125 24.7838 14.8125C24.7849 14.8125 24.7861 14.8125 24.7873 14.8125C24.7884 14.8125 24.7896 14.8125 24.7908 14.8125C24.792 14.8125 24.7931 14.8125 24.7943 14.8125C24.7955 14.8125 24.7967 14.8125 24.7978 14.8125C24.799 14.8125 24.8002 14.8125 24.8013 14.8125C24.8025 14.8125 24.8037 14.8125 24.8049 14.8125C24.806 14.8125 24.8072 14.8125 24.8084 14.8125C24.8096 14.8125 24.8107 14.8125 24.8119 14.8125C24.8131 14.8125 24.8143 14.8125 24.8154 14.8125C24.8166 14.8125 24.8178 14.8125 24.8189 14.8125C24.8201 14.8125 24.8213 14.8125 24.8225 14.8125C24.8236 14.8125 24.8248 14.8125 24.826 14.8125C24.8272 14.8125 24.8283 14.8125 24.8295 14.8125C24.8307 14.8125 24.8319 14.8125 24.833 14.8125C24.8342 14.8125 24.8354 14.8125 24.8366 14.8125C24.8377 14.8125 24.8389 14.8125 24.8401 14.8125C24.8413 14.8125 24.8424 14.8125 24.8436 14.8125C24.8448 14.8125 24.846 14.8125 24.8471 14.8125C24.8483 14.8125 24.8495 14.8125 24.8507 14.8125C24.8518 14.8125 24.853 14.8125 24.8542 14.8125C24.8554 14.8125 24.8565 14.8125 24.8577 14.8125C24.8589 14.8125 24.8601 14.8125 24.8612 14.8125C24.8624 14.8125 24.8636 14.8125 24.8648 14.8125C24.8659 14.8125 24.8671 14.8125 24.8683 14.8125C24.8695 14.8125 24.8707 14.8125 24.8718 14.8125C24.873 14.8125 24.8742 14.8125 24.8754 14.8125C24.8765 14.8125 24.8777 14.8125 24.8789 14.8125C24.8801 14.8125 24.8812 14.8125 24.8824 14.8125C24.8836 14.8125 24.8848 14.8125 24.886 14.8125C24.8871 14.8125 24.8883 14.8125 24.8895 14.8125C24.8907 14.8125 24.8918 14.8125 24.893 14.8125C24.8942 14.8125 24.8954 14.8125 24.8965 14.8125C24.8977 14.8125 24.8989 14.8125 24.9001 14.8125C24.9013 14.8125 24.9024 14.8125 24.9036 14.8125C24.9048 14.8125 24.906 14.8125 24.9071 14.8125C24.9083 14.8125 24.9095 14.8125 24.9107 14.8125C24.9119 14.8125 24.913 14.8125 24.9142 14.8125C24.9154 14.8125 24.9166 14.8125 24.9177 14.8125C24.9189 14.8125 24.9201 14.8125 24.9213 14.8125C24.9225 14.8125 24.9236 14.8125 24.9248 14.8125C24.926 14.8125 24.9272 14.8125 24.9284 14.8125C24.9295 14.8125 24.9307 14.8125 24.9319 14.8125C24.9331 14.8125 24.9343 14.8125 24.9354 14.8125C24.9366 14.8125 24.9378 14.8125 24.939 14.8125C24.9401 14.8125 24.9413 14.8125 24.9425 14.8125C24.9437 14.8125 24.9449 14.8125 24.946 14.8125C24.9472 14.8125 24.9484 14.8125 24.9496 14.8125C24.9508 14.8125 24.9519 14.8125 24.9531 14.8125C24.9543 14.8125 24.9555 14.8125 24.9567 14.8125C24.9578 14.8125 24.959 14.8125 24.9602 14.8125C24.9614 14.8125 24.9626 14.8125 24.9637 14.8125C24.9649 14.8125 24.9661 14.8125 24.9673 14.8125C24.9685 14.8125 24.9697 14.8125 24.9708 14.8125C24.972 14.8125 24.9732 14.8125 24.9744 14.8125C24.9756 14.8125 24.9767 14.8125 24.9779 14.8125C24.9791 14.8125 24.9803 14.8125 24.9815 14.8125C24.9826 14.8125 24.9838 14.8125 24.985 14.8125C24.9862 14.8125 24.9874 14.8125 24.9885 14.8125C24.9897 14.8125 24.9909 14.8125 24.9921 14.8125C24.9933 14.8125 24.9945 14.8125 24.9956 14.8125C24.9968 14.8125 24.998 14.8125 24.9992 14.8125C25.0004 14.8125 25.0016 14.8125 25.0027 14.8125C25.0039 14.8125 25.0051 14.8125 25.0063 14.8125C25.0075 14.8125 25.0086 14.8125 25.0098 14.8125C25.011 14.8125 25.0122 14.8125 25.0134 14.8125C25.0146 14.8125 25.0157 14.8125 25.0169 14.8125C25.0181 14.8125 25.0193 14.8125 25.0205 14.8125C25.0217 14.8125 25.0228 14.8125 25.024 14.8125C25.0252 14.8125 25.0264 14.8125 25.0276 14.8125C25.0288 14.8125 25.0299 14.8125 25.0311 14.8125C25.0323 14.8125 25.0335 14.8125 25.0347 14.8125C25.0359 14.8125 25.037 14.8125 25.0382 14.8125C25.0394 14.8125 25.0406 14.8125 25.0418 14.8125C25.043 14.8125 25.0441 14.8125 25.0453 14.8125C25.0465 14.8125 25.0477 14.8125 25.0489 14.8125C25.0501 14.8125 25.0512 14.8125 25.0524 14.8125C25.0536 14.8125 25.0548 14.8125 25.056 14.8125C25.0572 14.8125 25.0584 14.8125 25.0595 14.8125C25.0607 14.8125 25.0619 14.8125 25.0631 14.8125C25.0643 14.8125 25.0655 14.8125 25.0667 14.8125C25.0678 14.8125 25.069 14.8125 25.0702 14.8125C25.0714 14.8125 25.0726 14.8125 25.0738 14.8125C25.0749 14.8125 25.0761 14.8125 25.0773 14.8125C25.0785 14.8125 25.0797 14.8125 25.0809 14.8125C25.0821 14.8125 25.0832 14.8125 25.0844 14.8125C25.0856 14.8125 25.0868 14.8125 25.088 14.8125C25.0892 14.8125 25.0904 14.8125 25.0915 14.8125C25.0927 14.8125 25.0939 14.8125 25.0951 14.8125C25.0963 14.8125 25.0975 14.8125 25.0987 14.8125C25.0999 14.8125 25.101 14.8125 25.1022 14.8125C25.1034 14.8125 25.1046 14.8125 25.1058 14.8125C25.107 14.8125 25.1082 14.8125 25.1093 14.8125C25.1105 14.8125 25.1117 14.8125 25.1129 14.8125C25.1141 14.8125 25.1153 14.8125 25.1165 14.8125C25.1177 14.8125 25.1188 14.8125 25.12 14.8125C25.1212 14.8125 25.1224 14.8125 25.1236 14.8125C25.1248 14.8125 25.126 14.8125 25.1272 14.8125C25.1283 14.8125 25.1295 14.8125 25.1307 14.8125C25.1319 14.8125 25.1331 14.8125 25.1343 14.8125C25.1355 14.8125 25.1367 14.8125 25.1379 14.8125C25.139 14.8125 25.1402 14.8125 25.1414 14.8125C25.1426 14.8125 25.1438 14.8125 25.145 14.8125C25.1462 14.8125 25.1474 14.8125 25.1485 14.8125C25.1497 14.8125 25.1509 14.8125 25.1521 14.8125C25.1533 14.8125 25.1545 14.8125 25.1557 14.8125C25.1569 14.8125 25.1581 14.8125 25.1592 14.8125C25.1604 14.8125 25.1616 14.8125 25.1628 14.8125C25.164 14.8125 25.1652 14.8125 25.1664 14.8125C25.1676 14.8125 25.1688 14.8125 25.17 14.8125C25.1711 14.8125 25.1723 14.8125 25.1735 14.8125C25.1747 14.8125 25.1759 14.8125 25.1771 14.8125C25.1783 14.8125 25.1795 14.8125 25.1807 14.8125C25.1819 14.8125 25.183 14.8125 25.1842 14.8125C25.1854 14.8125 25.1866 14.8125 25.1878 14.8125C25.189 14.8125 25.1902 14.8125 25.1914 14.8125C25.1926 14.8125 25.1938 14.8125 25.195 14.8125C25.1961 14.8125 25.1973 14.8125 25.1985 14.8125C25.1997 14.8125 25.2009 14.8125 25.2021 14.8125C25.2033 14.8125 25.2045 14.8125 25.2057 14.8125C25.2069 14.8125 25.2081 14.8125 25.2092 14.8125C25.2104 14.8125 25.2116 14.8125 25.2128 14.8125C25.214 14.8125 25.2152 14.8125 25.2164 14.8125C25.2176 14.8125 25.2188 14.8125 25.22 14.8125C25.2212 14.8125 25.2224 14.8125 25.2235 14.8125C25.2247 14.8125 25.2259 14.8125 25.2271 14.8125C25.2283 14.8125 25.2295 14.8125 25.2307 14.8125C25.2319 14.8125 25.2331 14.8125 25.2343 14.8125C25.2355 14.8125 25.2367 14.8125 25.2379 14.8125C25.239 14.8125 25.2402 14.8125 25.2414 14.8125C25.2426 14.8125 25.2438 14.8125 25.245 14.8125C25.2462 14.8125 25.2474 14.8125 25.2486 14.8125C25.2498 14.8125 25.251 14.8125 25.2522 14.8125C25.2534 14.8125 25.2546 14.8125 25.2558 14.8125C25.2569 14.8125 25.2581 14.8125 25.2593 14.8125C25.2605 14.8125 25.2617 14.8125 25.2629 14.8125C25.2641 14.8125 25.2653 14.8125 25.2665 14.8125C25.2677 14.8125 25.2689 14.8125 25.2701 14.8125C25.2713 14.8125 25.2725 14.8125 25.2737 14.8125C25.2749 14.8125 25.276 14.8125 25.2772 14.8125C25.2784 14.8125 25.2796 14.8125 25.2808 14.8125C25.282 14.8125 25.2832 14.8125 25.2844 14.8125C25.2856 14.8125 25.2868 14.8125 25.288 14.8125C25.2892 14.8125 25.2904 14.8125 25.2916 14.8125C25.2928 14.8125 25.294 14.8125 25.2952 14.8125C25.2964 14.8125 25.2976 14.8125 25.2988 14.8125C25.2999 14.8125 25.3011 14.8125 25.3023 14.8125C25.3035 14.8125 25.3047 14.8125 25.3059 14.8125C25.3071 14.8125 25.3083 14.8125 25.3095 14.8125C25.3107 14.8125 25.3119 14.8125 25.3131 14.8125C25.3143 14.8125 25.3155 14.8125 25.3167 14.8125C25.3179 14.8125 25.3191 14.8125 25.3203 14.8125C25.3215 14.8125 25.3227 14.8125 25.3239 14.8125C25.3251 14.8125 25.3263 14.8125 25.3275 14.8125C25.3287 14.8125 25.3299 14.8125 25.331 14.8125C25.3322 14.8125 25.3334 14.8125 25.3346 14.8125C25.3358 14.8125 25.337 14.8125 25.3382 14.8125C25.3394 14.8125 25.3406 14.8125 25.3418 14.8125C25.343 14.8125 25.3442 14.8125 25.3454 14.8125C25.3466 14.8125 25.3478 14.8125 25.349 14.8125C25.3502 14.8125 25.3514 14.8125 25.3526 14.8125C25.3538 14.8125 25.355 14.8125 25.3562 14.8125C25.3574 14.8125 25.3586 14.8125 25.3598 14.8125C25.361 14.8125 25.3622 14.8125 25.3634 14.8125C25.3646 14.8125 25.3658 14.8125 25.367 14.8125C25.3682 14.8125 25.3694 14.8125 25.3706 14.8125C25.3718 14.8125 25.373 14.8125 25.3742 14.8125C25.3754 14.8125 25.3766 14.8125 25.3778 14.8125C25.379 14.8125 25.3802 14.8125 25.3814 14.8125C25.3826 14.8125 25.3838 14.8125 25.385 14.8125C25.3862 14.8125 25.3874 14.8125 25.3886 14.8125C25.3898 14.8125 25.391 14.8125 25.3922 14.8125C25.3934 14.8125 25.3946 14.8125 25.3958 14.8125C25.397 14.8125 25.3982 14.8125 25.3994 14.8125C25.4006 14.8125 25.4018 14.8125 25.403 14.8125C25.4042 14.8125 25.4054 14.8125 25.4066 14.8125C25.4078 14.8125 25.409 14.8125 25.4102 14.8125C25.4114 14.8125 25.4126 14.8125 25.4138 14.8125C25.415 14.8125 25.4162 14.8125 25.4174 14.8125C25.4186 14.8125 25.4198 14.8125 25.421 14.8125C25.4222 14.8125 25.4234 14.8125 25.4246 14.8125C25.4258 14.8125 25.427 14.8125 25.4282 14.8125C25.4294 14.8125 25.4306 14.8125 25.4318 14.8125C25.433 14.8125 25.4342 14.8125 25.4354 14.8125C25.4366 14.8125 25.4378 14.8125 25.439 14.8125C25.4402 14.8125 25.4414 14.8125 25.4426 14.8125C25.4438 14.8125 25.445 14.8125 25.4462 14.8125C25.4474 14.8125 25.4486 14.8125 25.4498 14.8125C25.451 14.8125 25.4522 14.8125 25.4534 14.8125C25.4546 14.8125 25.4558 14.8125 25.457 14.8125C25.4582 14.8125 25.4594 14.8125 25.4606 14.8125C25.4618 14.8125 25.463 14.8125 25.4642 14.8125C25.4654 14.8125 25.4666 14.8125 25.4678 14.8125C25.469 14.8125 25.4702 14.8125 25.4714 14.8125C25.4726 14.8125 25.4738 14.8125 25.4751 14.8125C25.4763 14.8125 25.4775 14.8125 25.4787 14.8125C25.4799 14.8125 25.4811 14.8125 25.4823 14.8125C25.4835 14.8125 25.4847 14.8125 25.4859 14.8125C25.4871 14.8125 25.4883 14.8125 25.4895 14.8125C25.4907 14.8125 25.4919 14.8125 25.4931 14.8125C25.4943 14.8125 25.4955 14.8125 25.4967 14.8125C25.4979 14.8125 25.4991 14.8125 25.5003 14.8125C25.5015 14.8125 25.5027 14.8125 25.5039 14.8125C25.5051 14.8125 25.5064 14.8125 25.5076 14.8125C25.5088 14.8125 25.51 14.8125 25.5112 14.8125C25.5124 14.8125 25.5136 14.8125 25.5148 14.8125C25.516 14.8125 25.5172 14.8125 25.5184 14.8125C25.5196 14.8125 25.5208 14.8125 25.522 14.8125C25.5232 14.8125 25.5244 14.8125 25.5256 14.8125C25.5268 14.8125 25.528 14.8125 25.5293 14.8125C25.5305 14.8125 25.5317 14.8125 25.5329 14.8125C25.5341 14.8125 25.5353 14.8125 25.5365 14.8125C25.5377 14.8125 25.5389 14.8125 25.5401 14.8125C25.5413 14.8125 25.5425 14.8125 25.5437 14.8125C25.5449 14.8125 25.5461 14.8125 25.5473 14.8125C25.5485 14.8125 25.5498 14.8125 25.551 14.8125C25.5522 14.8125 25.5534 14.8125 25.5546 14.8125C25.5558 14.8125 25.557 14.8125 25.5582 14.8125C25.5594 14.8125 25.5606 14.8125 25.5618 14.8125C25.563 14.8125 25.5642 14.8125 25.5654 14.8125C25.5667 14.8125 25.5679 14.8125 25.5691 14.8125C25.5703 14.8125 25.5715 14.8125 25.5727 14.8125C25.5739 14.8125 25.5751 14.8125 25.5763 14.8125C25.5775 14.8125 25.5787 14.8125 25.5799 14.8125C25.5811 14.8125 25.5823 14.8125 25.5836 14.8125C25.5848 14.8125 25.586 14.8125 25.5872 14.8125C25.5884 14.8125 25.5896 14.8125 25.5908 14.8125C25.592 14.8125 25.5932 14.8125 25.5944 14.8125C25.5956 14.8125 25.5968 14.8125 25.5981 14.8125C25.5993 14.8125 25.6005 14.8125 25.6017 14.8125C25.6029 14.8125 25.6041 14.8125 25.6053 14.8125C25.6065 14.8125 25.6077 14.8125 25.6089 14.8125C25.6101 14.8125 25.6114 14.8125 25.6126 14.8125C25.6138 14.8125 25.615 14.8125 25.6162 14.8125C25.6174 14.8125 25.6186 14.8125 25.6198 14.8125C25.621 14.8125 25.6222 14.8125 25.6234 14.8125C25.6247 14.8125 25.6259 14.8125 25.6271 14.8125C25.6283 14.8125 25.6295 14.8125 25.6307 14.8125C25.6319 14.8125 25.6331 14.8125 25.6343 14.8125C25.6355 14.8125 25.6368 14.8125 25.638 14.8125C25.6392 14.8125 25.6404 14.8125 25.6416 14.8125C25.6428 14.8125 25.644 14.8125 25.6452 14.8125C25.6464 14.8125 25.6477 14.8125 25.6489 14.8125C25.6501 14.8125 25.6513 14.8125 25.6525 14.8125C25.6537 14.8125 25.6549 14.8125 25.6561 14.8125C25.6573 14.8125 25.6586 14.8125 25.6598 14.8125C25.661 14.8125 25.6622 14.8125 25.6634 14.8125C25.6646 14.8125 25.6658 14.8125 25.667 14.8125C25.6682 14.8125 25.6695 14.8125 25.6707 14.8125C25.6719 14.8125 25.6731 14.8125 25.6743 14.8125C25.6755 14.8125 25.6767 14.8125 25.6779 14.8125C25.6792 14.8125 25.6804 14.8125 25.6816 14.8125C25.6828 14.8125 25.684 14.8125 25.6852 14.8125C25.6864 14.8125 25.6876 14.8125 25.6889 14.8125C25.6901 14.8125 25.6913 14.8125 25.6925 14.8125C25.6937 14.8125 25.6949 14.8125 25.6961 14.8125C25.6973 14.8125 25.6986 14.8125 25.6998 14.8125C25.701 14.8125 25.7022 14.8125 25.7034 14.8125C25.7046 14.8125 25.7058 14.8125 25.707 14.8125C25.7083 14.8125 25.7095 14.8125 25.7107 14.8125C25.7119 14.8125 25.7131 14.8125 25.7143 14.8125C25.7155 14.8125 25.7168 14.8125 25.718 14.8125C25.7192 14.8125 25.7204 14.8125 25.7216 14.8125C25.7228 14.8125 25.724 14.8125 25.7253 14.8125C25.7265 14.8125 25.7277 14.8125 25.7289 14.8125C25.7301 14.8125 25.7313 14.8125 25.7325 14.8125C25.7338 14.8125 25.735 14.8125 25.7362 14.8125C25.7374 14.8125 25.7386 14.8125 25.7398 14.8125C25.741 14.8125 25.7423 14.8125 25.7435 14.8125C25.7447 14.8125 25.7459 14.8125 25.7471 14.8125C25.7483 14.8125 25.7495 14.8125 25.7508 14.8125C25.752 14.8125 25.7532 14.8125 25.7544 14.8125C25.7556 14.8125 25.7568 14.8125 25.7581 14.8125C25.7593 14.8125 25.7605 14.8125 25.7617 14.8125C25.7629 14.8125 25.7641 14.8125 25.7654 14.8125C25.7666 14.8125 25.7678 14.8125 25.769 14.8125C25.7702 14.8125 25.7714 14.8125 25.7726 14.8125C25.7739 14.8125 25.7751 14.8125 25.7763 14.8125C25.7775 14.8125 25.7787 14.8125 25.7799 14.8125C25.7812 14.8125 25.7824 14.8125 25.7836 14.8125C25.7848 14.8125 25.786 14.8125 25.7872 14.8125C25.7885 14.8125 25.7897 14.8125 25.7909 14.8125C25.7921 14.8125 25.7933 14.8125 25.7945 14.8125C25.7958 14.8125 25.797 14.8125 25.7982 14.8125C25.7994 14.8125 25.8006 14.8125 25.8019 14.8125C25.8031 14.8125 25.8043 14.8125 25.8055 14.8125C25.8067 14.8125 25.8079 14.8125 25.8092 14.8125C25.8104 14.8125 25.8116 14.8125 25.8128 14.8125C25.814 14.8125 25.8152 14.8125 25.8165 14.8125C25.8177 14.8125 25.8189 14.8125 25.8201 14.8125C25.8213 14.8125 25.8226 14.8125 25.8238 14.8125C25.825 14.8125 25.8262 14.8125 25.8274 14.8125C25.8287 14.8125 25.8299 14.8125 25.8311 14.8125C25.8323 14.8125 25.8335 14.8125 25.8347 14.8125C25.836 14.8125 25.8372 14.8125 25.8384 14.8125C25.8396 14.8125 25.8408 14.8125 25.8421 14.8125C25.8433 14.8125 25.8445 14.8125 25.8457 14.8125C25.8469 14.8125 25.8482 14.8125 25.8494 14.8125C25.8506 14.8125 25.8518 14.8125 25.853 14.8125C25.8543 14.8125 25.8555 14.8125 25.8567 14.8125C25.8579 14.8125 25.8591 14.8125 25.8604 14.8125C25.8616 14.8125 25.8628 14.8125 25.864 14.8125C25.8652 14.8125 25.8665 14.8125 25.8677 14.8125C25.8689 14.8125 25.8701 14.8125 25.8713 14.8125C25.8726 14.8125 25.8738 14.8125 25.875 14.8125V13.8125ZM24.0625 13.8125L24.0443 12.8127L13.7318 13.0002L13.75 14L13.7682 14.9998L24.0807 14.8123L24.0625 13.8125ZM13.75 14L12.75 14.0026L12.8125 38.0651L13.8125 38.0625L14.8125 38.0599L14.75 13.9974L13.75 14ZM13.8125 38.0625L13.8281 39.0624L37.8906 38.6874L37.875 37.6875L37.8594 36.6876L13.7969 37.0626L13.8125 38.0625ZM37.875 37.6875L37.8914 38.6874C40.4993 38.6446 42.9686 38.3451 45.2966 37.7847L45.0625 36.8125L44.8284 35.8403C42.6564 36.3632 40.334 36.6471 37.8586 36.6876L37.875 37.6875ZM45.0625 36.8125L45.3092 37.7816C47.7434 37.162 49.767 36.0847 51.3321 34.5196L50.625 33.8125L49.9179 33.1054C48.6496 34.3736 46.9649 35.2964 44.8158 35.8434L45.0625 36.8125ZM50.625 33.8125L51.3321 34.5196C53.0227 32.829 53.8125 30.5278 53.8125 27.75H52.8125H51.8125C51.8125 30.1388 51.144 31.8793 49.9179 33.1054L50.625 33.8125ZM39.0625 78.5L39.0774 79.4999C44.7771 79.4148 49.3101 78.2029 52.5445 75.7322L51.9375 74.9375L51.3305 74.1428C48.5649 76.2554 44.5146 77.4185 39.0476 77.5001L39.0625 78.5ZM51.9375 74.9375L52.5462 75.7309C55.9322 73.1334 57.5 68.8085 57.5 63.0625H56.5H55.5C55.5 68.4832 54.0261 72.0749 51.3288 74.1441L51.9375 74.9375ZM56.5 63.0625H57.5C57.5 57.8745 55.7583 54.0828 52.0406 52.0592L51.5625 52.9375L51.0844 53.8158C53.95 55.3756 55.5 58.3338 55.5 63.0625H56.5ZM51.5625 52.9375L52.0491 52.0639C48.5646 50.1231 44.1741 49.1875 38.9375 49.1875V50.1875V51.1875C43.9509 51.1875 47.9771 52.0852 51.0759 53.8111L51.5625 52.9375ZM38.9375 50.1875V49.1875H38.125V50.1875V51.1875H38.9375V50.1875ZM38.125 50.1875L38.1096 49.1876L13.7971 49.5626L13.8125 50.5625L13.8279 51.5624L38.1404 51.1874L38.125 50.1875ZM13.8125 50.5625L12.8125 50.5647L12.875 78.4397L13.875 78.4375L14.875 78.4353L14.8125 50.5603L13.8125 50.5625ZM13.875 78.4375L13.8725 79.4375L39.06 79.5L39.0625 78.5L39.065 77.5L13.8775 77.4375L13.875 78.4375Z" fill="black" mask="url(#path-1-outside-1_1_5)"/>
</svg>
